<svg width="939" height="704" viewBox="0 0 939 704" fill="none" xmlns="http://www.w3.org/2000/svg">
<path d="M873.755 560.414C868.512 594.792 854.294 627.642 834.849 657.448C831.289 662.912 827.549 668.276 823.652 673.526H122.935C119.411 668.353 116 662.976 112.724 657.448C93.0205 624.184 78.2017 585.395 72.6676 552.289C63.4405 497.072 75.9599 447.362 113.635 404.147C134.597 380.104 160.521 368.077 188.953 354.862C144.081 223.538 281.974 107.623 403.545 70.1622C570.753 18.6419 840.421 55.221 849.247 259.823C851.477 311.448 841.367 359.293 805.74 399.701C806.46 399.518 807.055 398.369 807.603 397.902C863.622 428.098 882.48 503.257 873.755 560.414Z" fill="#FFFBE9"/>
<path d="M57.0385 673.526H881.966V657.448H57.0385V673.526Z" fill="#545454"/>
<path d="M292.796 318.073L262.548 322.883C267.584 333.701 265.803 345.639 263.325 356.436C273.829 356.782 284.509 361.073 294.739 358.498C299.787 346.059 297.294 330.623 292.796 318.073Z" fill="#92A32B"/>
<path d="M294.171 314.637L263.924 319.447C268.959 330.265 267.178 342.203 264.699 353C275.204 353.346 285.884 357.637 296.114 355.062C301.162 342.623 298.669 327.187 294.171 314.637Z" fill="#BEE41B"/>
<path d="M271.747 328.349C277.55 326.755 283.448 325.979 289.465 325.964C290.203 325.961 290.203 324.816 289.465 324.819C283.35 324.835 277.341 325.624 271.442 327.244C270.73 327.44 271.033 328.544 271.747 328.349Z" fill="#92A32B"/>
<path d="M273.121 332.814C280.308 330.788 287.74 330.035 295.115 329.036C295.845 328.936 295.534 327.833 294.812 327.931C287.435 328.931 280.003 329.684 272.816 331.71C272.107 331.91 272.409 333.015 273.121 332.814Z" fill="#92A32B"/>
<path d="M271.938 337.3C278.836 336.887 285.319 334.251 292.023 332.814C292.745 332.66 292.439 331.556 291.718 331.71C285.12 333.125 278.725 335.749 271.938 336.155C271.204 336.2 271.2 337.345 271.938 337.3Z" fill="#92A32B"/>
<path d="M275.183 340.716C282.273 338.946 289.383 337.254 296.49 335.562C297.208 335.392 296.904 334.287 296.186 334.459C289.077 336.151 281.968 337.841 274.878 339.612C274.162 339.79 274.467 340.895 275.183 340.716Z" fill="#92A32B"/>
<path d="M625.572 125.142L653 134.29C646.639 143.589 646.455 154.982 647.096 165.42C637.259 164.122 626.65 166.47 617.52 162.493C614.737 150.128 619.445 136.137 625.572 125.142Z" fill="#92A32B"/>
<path d="M624.822 121.73L652.25 130.878C645.89 140.176 645.706 151.57 646.346 162.008C636.51 160.709 625.9 163.057 616.77 159.08C613.988 146.716 618.695 132.724 624.822 121.73Z" fill="#FDE427"/>
<path d="M643.59 137.961C638.431 135.581 633.057 133.949 627.455 133.006C626.768 132.89 626.944 131.823 627.632 131.939C633.325 132.897 638.799 134.56 644.044 136.979C644.676 137.271 644.225 138.253 643.59 137.961Z" fill="#92A32B"/>
<path d="M641.619 141.908C635.24 138.912 628.434 137.064 621.717 134.994C621.055 134.789 621.515 133.81 622.172 134.013C628.887 136.082 635.694 137.93 642.073 140.927C642.704 141.222 642.252 142.205 641.619 141.908Z" fill="#92A32B"/>
<path d="M642.029 146.269C635.668 144.82 630.037 141.365 624.016 138.992C623.367 138.736 623.823 137.755 624.469 138.01C630.396 140.346 635.947 143.776 642.206 145.202C642.883 145.357 642.709 146.424 642.029 146.269Z" fill="#92A32B"/>
<path d="M638.479 148.949C632.15 146.207 625.789 143.535 619.43 140.862C618.787 140.591 619.242 139.61 619.885 139.88C626.244 142.553 632.603 145.225 638.932 147.968C639.573 148.245 639.119 149.226 638.479 148.949Z" fill="#92A32B"/>
<path d="M270.84 181.432L240.593 186.242C245.628 197.06 243.847 208.997 241.368 219.794C251.873 220.141 262.552 224.431 272.783 221.855C277.832 209.417 275.337 193.981 270.84 181.432Z" fill="#16B1B5"/>
<path d="M272.215 177.995L241.968 182.805C247.003 193.623 245.222 205.562 242.743 216.358C253.248 216.704 263.927 220.995 274.157 218.42C273.889 206.695 274.805 191.579 272.215 177.995Z" fill="#46F2F2"/>
<path d="M251.46 193.539C255.927 191.946 260.466 191.17 265.097 191.155C265.667 191.152 265.667 190.007 265.097 190.01C260.391 190.025 255.766 190.815 251.226 192.434C250.678 192.63 250.91 193.735 251.46 193.539Z" fill="#16B1B5"/>
<path d="M252.517 198.005C258.049 195.979 263.77 195.226 269.447 194.226C270.008 194.127 269.768 193.024 269.212 193.121C263.535 194.122 257.814 194.874 252.283 196.901C251.737 197.1 251.97 198.206 252.517 198.005Z" fill="#16B1B5"/>
<path d="M251.607 202.491C256.916 202.078 261.906 199.442 267.066 198.005C267.622 197.85 267.386 196.746 266.831 196.901C261.753 198.315 256.831 200.939 251.607 201.346C251.042 201.39 251.039 202.535 251.607 202.491Z" fill="#16B1B5"/>
<path d="M254.105 205.907C259.561 204.137 265.033 202.445 270.504 200.753C271.058 200.582 270.823 199.478 270.27 199.649C264.799 201.342 259.327 203.033 253.87 204.802C253.319 204.981 253.553 206.086 254.105 205.907Z" fill="#16B1B5"/>
<path d="M339.043 182.032L308.796 186.843C313.832 197.66 312.05 209.599 309.572 220.395C320.076 220.741 330.756 225.033 340.986 222.457C346.036 210.018 343.541 194.582 339.043 182.032Z" fill="#92A32B"/>
<path d="M340.418 178.597L310.171 183.407C315.206 194.224 313.425 206.163 310.947 216.959C321.451 217.306 332.131 221.597 342.36 219.021C347.41 206.583 344.916 191.147 340.418 178.597Z" fill="#BEE41B"/>
<path d="M317.993 192.308C323.798 190.715 329.695 189.939 335.712 189.924C336.452 189.921 336.452 188.776 335.712 188.778C329.597 188.794 323.588 189.584 317.689 191.204C316.978 191.399 317.28 192.504 317.993 192.308Z" fill="#92A32B"/>
<path d="M319.369 196.774C326.554 194.748 333.987 193.995 341.362 192.995C342.093 192.896 341.78 191.793 341.058 191.891C333.682 192.89 326.25 193.643 319.064 195.67C318.354 195.87 318.656 196.974 319.369 196.774Z" fill="#92A32B"/>
<path d="M318.185 201.26C325.083 200.846 331.566 198.212 338.27 196.774C338.992 196.619 338.686 195.515 337.965 195.67C331.368 197.085 324.972 199.708 318.185 200.115C317.451 200.159 317.447 201.305 318.185 201.26Z" fill="#92A32B"/>
<path d="M321.43 204.675C328.52 202.905 335.629 201.214 342.737 199.522C343.456 199.352 343.151 198.247 342.433 198.418C335.325 200.11 328.215 201.801 321.126 203.571C320.41 203.75 320.713 204.855 321.43 204.675Z" fill="#92A32B"/>
<path d="M234.723 286.873L208.6 288.247C212.035 299.226 207.737 312.004 212.157 323.189C219.399 322.308 228.95 322.866 235.993 320.425C236.531 310.304 238.016 296.253 234.723 286.873Z" fill="#D3B81A"/>
<path d="M236.785 284.124L210.662 285.499C214.097 296.477 209.798 309.255 214.22 320.441C221.461 319.56 231.013 320.117 238.056 317.677C238.594 307.556 240.078 293.504 236.785 284.124Z" fill="#FDE427"/>
<path d="M215.986 296.394C217.509 297.042 219.696 296.37 221.235 296.086C223.587 295.651 225.926 295.035 228.302 294.754C229.027 294.669 229.035 293.523 228.302 293.609C226.202 293.857 224.132 294.353 222.06 294.764C220.99 294.976 219.917 295.175 218.838 295.331C218.215 295.42 217.174 295.664 216.563 295.405C215.891 295.119 215.307 296.105 215.986 296.394Z" fill="#D3B81A"/>
<path d="M214.555 300.594C221.03 299.852 227.343 298.189 233.61 296.451C234.32 296.254 234.018 295.149 233.305 295.348C227.142 297.056 220.924 298.72 214.555 299.449C213.831 299.532 213.823 300.678 214.555 300.594Z" fill="#D3B81A"/>
<path d="M216.618 303.686C220.169 303.21 223.593 302.049 227.08 301.261C227.801 301.098 227.495 299.994 226.776 300.157C223.394 300.921 220.062 302.079 216.618 302.541C215.896 302.638 215.888 303.785 216.618 303.686Z" fill="#D3B81A"/>
<path d="M217.497 305.464C217.946 306.179 219.008 306.091 219.733 306.041C221.242 305.937 222.746 305.596 224.218 305.261C227.382 304.541 230.528 303.656 233.61 302.635C234.308 302.404 234.009 301.298 233.305 301.531C230.717 302.389 228.082 303.126 225.438 303.79C223.939 304.168 222.427 304.511 220.9 304.756C220.554 304.811 218.65 305.146 218.487 304.886C218.096 304.262 217.105 304.836 217.497 305.464Z" fill="#D3B81A"/>
<path d="M218.529 306.604C218.176 307.157 217.835 307.214 217.763 307.923C217.732 308.233 218.048 308.497 218.336 308.496C222.155 308.47 225.924 307.807 229.485 306.414C230.166 306.148 229.87 305.04 229.181 305.31C225.71 306.667 222.06 307.326 218.336 307.351C218.527 307.542 218.718 307.732 218.909 307.923C218.925 307.764 219.42 307.335 219.518 307.182C219.916 306.557 218.924 305.983 218.529 306.604Z" fill="#D3B81A"/>
<path d="M222.171 309.792C224.074 311.064 226.837 310.572 228.99 310.557C229.728 310.552 229.729 309.406 228.99 309.412C227.066 309.425 224.442 309.934 222.75 308.803C222.133 308.391 221.561 309.384 222.171 309.792Z" fill="#D3B81A"/>
<path d="M739.556 232.466L713.434 233.84C716.869 244.819 712.571 257.597 716.991 268.782C724.233 267.902 733.785 268.459 740.828 266.018C741.366 255.898 742.85 241.846 739.556 232.466Z" fill="#D3B81A"/>
<path d="M741.62 229.717L715.497 231.092C718.932 242.07 714.634 254.849 719.054 266.034C726.295 265.153 735.847 265.711 742.891 263.269C743.427 253.148 744.913 239.097 741.62 229.717Z" fill="#FDE427"/>
<path d="M720.819 241.987C722.344 242.635 724.529 241.963 726.07 241.679C728.421 241.244 730.759 240.629 733.137 240.347C733.861 240.261 733.87 239.116 733.137 239.202C731.036 239.451 728.967 239.945 726.894 240.357C725.823 240.569 724.751 240.769 723.672 240.924C723.049 241.014 722.009 241.258 721.398 240.998C720.726 240.712 720.143 241.698 720.819 241.987Z" fill="#D3B81A"/>
<path d="M719.39 246.188C725.864 245.446 732.177 243.782 738.444 242.045C739.155 241.847 738.853 240.742 738.14 240.94C731.977 242.649 725.759 244.312 719.39 245.042C718.665 245.126 718.657 246.272 719.39 246.188Z" fill="#D3B81A"/>
<path d="M721.452 249.279C725.003 248.803 728.427 247.642 731.914 246.854C732.635 246.692 732.329 245.587 731.61 245.749C728.228 246.514 724.895 247.672 721.452 248.134C720.732 248.23 720.722 249.377 721.452 249.279Z" fill="#D3B81A"/>
<path d="M722.332 251.057C722.781 251.772 723.841 251.685 724.567 251.635C726.078 251.531 727.579 251.19 729.052 250.854C732.217 250.134 735.364 249.25 738.445 248.228C739.142 247.997 738.843 246.891 738.14 247.124C735.551 247.982 732.917 248.719 730.273 249.383C728.773 249.76 727.261 250.104 725.734 250.349C725.389 250.404 723.485 250.738 723.321 250.479C722.931 249.855 721.938 250.429 722.332 251.057Z" fill="#D3B81A"/>
<path d="M723.363 252.197C723.011 252.75 722.67 252.806 722.597 253.517C722.567 253.826 722.883 254.092 723.171 254.089C726.99 254.063 730.759 253.4 734.32 252.007C735 251.742 734.705 250.633 734.015 250.903C730.544 252.26 726.895 252.918 723.171 252.944C723.362 253.135 723.552 253.326 723.743 253.517C723.76 253.357 724.255 252.928 724.352 252.775C724.751 252.15 723.759 251.576 723.363 252.197Z" fill="#D3B81A"/>
<path d="M727.005 255.385C728.91 256.657 731.672 256.165 733.825 256.15C734.562 256.145 734.562 255 733.825 255.005C731.9 255.018 729.276 255.527 727.583 254.396C726.968 253.984 726.395 254.977 727.005 255.385Z" fill="#D3B81A"/>
<path d="M466.269 246.541L440.146 247.915C443.581 258.894 439.283 271.673 443.703 282.858C450.945 281.977 460.497 282.534 467.54 280.093C468.078 269.972 469.562 255.921 466.269 246.541Z" fill="#D3B81A"/>
<path d="M468.332 243.792L442.209 245.166C445.644 256.145 441.346 268.924 445.766 280.109C453.007 279.227 462.559 279.785 469.603 277.345C470.14 267.224 471.624 253.172 468.332 243.792Z" fill="#FDE427"/>
<path d="M447.531 256.062C449.056 256.71 451.242 256.038 452.782 255.754C455.134 255.319 457.471 254.703 459.849 254.422C460.573 254.336 460.582 253.19 459.849 253.277C457.748 253.526 455.679 254.02 453.606 254.432C452.536 254.645 451.463 254.844 450.384 254.999C449.761 255.088 448.721 255.333 448.11 255.073C447.438 254.787 446.854 255.773 447.531 256.062Z" fill="#D3B81A"/>
<path d="M446.102 260.263C452.576 259.52 458.889 257.857 465.156 256.12C465.867 255.922 465.565 254.817 464.852 255.015C458.689 256.725 452.47 258.388 446.102 259.117C445.377 259.2 445.369 260.346 446.102 260.263Z" fill="#D3B81A"/>
<path d="M448.164 263.355C451.714 262.878 455.139 261.717 458.626 260.929C459.346 260.766 459.041 259.663 458.322 259.825C454.941 260.589 451.608 261.747 448.164 262.209C447.444 262.306 447.434 263.452 448.164 263.355Z" fill="#D3B81A"/>
<path d="M449.044 265.132C449.492 265.847 450.553 265.759 451.279 265.709C452.79 265.605 454.291 265.265 455.764 264.929C458.928 264.209 462.076 263.324 465.156 262.303C465.854 262.072 465.555 260.966 464.852 261.199C462.263 262.057 459.629 262.794 456.985 263.459C455.485 263.836 453.973 264.179 452.445 264.424C452.101 264.479 450.196 264.814 450.034 264.554C449.642 263.93 448.65 264.505 449.044 265.132Z" fill="#D3B81A"/>
<path d="M450.075 266.272C449.723 266.825 449.382 266.882 449.309 267.591C449.278 267.901 449.595 268.166 449.883 268.164C453.702 268.139 457.471 267.475 461.032 266.082C461.712 265.816 461.417 264.709 460.727 264.978C457.256 266.336 453.607 266.993 449.883 267.019C450.074 267.209 450.265 267.4 450.456 267.591C450.472 267.432 450.966 267.004 451.064 266.85C451.463 266.225 450.47 265.65 450.075 266.272Z" fill="#D3B81A"/>
<path d="M453.717 269.46C455.622 270.732 458.384 270.24 460.536 270.225C461.274 270.22 461.275 269.075 460.536 269.081C458.612 269.093 455.988 269.602 454.295 268.471C453.679 268.059 453.107 269.052 453.717 269.46Z" fill="#D3B81A"/>
<path d="M297.351 291.623C293.878 282.21 290.78 272.497 288.368 262.383C282.631 269.673 261.359 270.68 261.359 270.68C265.965 280.726 270.353 293.629 270.358 304.428C279.457 301.215 288.844 296.453 297.351 291.623Z" fill="#AA3C6E"/>
<path d="M297.978 288.615C294.506 279.202 291.408 269.489 288.996 259.375C283.258 266.665 261.986 267.672 261.986 267.672C266.591 277.718 270.981 290.621 270.986 301.421C280.084 298.207 289.472 293.444 297.978 288.615Z" fill="#FF5593"/>
<path d="M272.982 274.976C275.101 275.753 277.586 274.833 279.558 274.034C281.965 273.057 284.239 271.769 286.452 270.417C287.082 270.033 286.509 269.041 285.876 269.427C283.967 270.593 282.017 271.689 279.98 272.615C278.064 273.486 275.406 274.648 273.289 273.873C272.593 273.617 272.294 274.724 272.982 274.976Z" fill="#AA3C6E"/>
<path d="M274.652 279.57C277.134 278.486 279.806 277.894 282.309 276.86C282.982 276.584 282.698 275.473 282.017 275.754C279.417 276.826 276.654 277.454 274.075 278.58C273.4 278.875 273.982 279.863 274.652 279.57Z" fill="#AA3C6E"/>
<path d="M274.229 281.043C277.184 282.285 280.609 280.495 283.343 279.431C284.023 279.166 283.738 278.056 283.051 278.323C280.522 279.307 277.266 281.087 274.535 279.939C273.855 279.654 273.558 280.761 274.229 281.043Z" fill="#AA3C6E"/>
<path d="M272.995 286.758C277.561 284.094 282.744 282.774 287.612 280.792C288.286 280.517 288.003 279.406 287.32 279.684C282.359 281.705 277.073 283.051 272.419 285.768C271.781 286.14 272.355 287.131 272.995 286.758Z" fill="#AA3C6E"/>
<path d="M276.143 289.857C279.321 288.631 282.502 287.414 285.571 285.928C286.235 285.606 285.656 284.617 284.994 284.938C282.018 286.379 278.934 287.56 275.851 288.749C275.169 289.012 275.455 290.122 276.143 289.857Z" fill="#AA3C6E"/>
<path d="M277.319 291.86C278.453 292.347 280.036 291.407 281.045 290.954C282.808 290.161 284.521 289.235 286.184 288.253C286.82 287.878 286.246 286.887 285.609 287.263C284.264 288.056 282.886 288.792 281.486 289.482C280.743 289.848 279.989 290.193 279.216 290.49C278.949 290.592 278.101 290.959 277.896 290.871C277.226 290.583 276.64 291.569 277.319 291.86Z" fill="#AA3C6E"/>
<path d="M275.445 209.93C275.89 203.833 275.173 197.495 273.783 191.432C273.519 186.903 273.049 182.37 272.215 177.995L270.326 178.296C275.612 177.065 280.953 175.092 283.421 171.957C285.832 182.071 288.931 191.784 292.403 201.197C287.005 204.261 281.254 207.297 275.445 209.93ZM256.52 180.492C256.483 180.412 256.447 180.333 256.411 180.254C256.411 180.254 257.624 180.197 259.549 180.01L256.52 180.492Z" fill="#73CDC0"/>
<path d="M274.101 210.531C274.112 204.507 274.164 197.975 273.783 191.432C275.173 197.495 275.89 203.833 275.445 209.93C274.998 210.132 274.55 210.333 274.101 210.531Z" fill="#0A9195"/>
<path d="M265.411 214.003C265.409 210.418 264.925 206.602 264.109 202.736C266.24 202.072 268.372 201.413 270.504 200.753C271.018 200.595 270.852 199.631 270.383 199.631C270.347 199.631 270.31 199.636 270.27 199.649C268.136 200.309 266.002 200.969 263.868 201.633C263.688 200.833 263.493 200.032 263.286 199.231C264.541 198.784 265.798 198.358 267.066 198.005C267.585 197.86 267.413 196.886 266.935 196.886C266.902 196.886 266.867 196.891 266.831 196.901C265.547 197.258 264.272 197.694 263.001 198.151C262.758 197.258 262.501 196.367 262.233 195.478C264.634 195.028 267.044 194.649 269.447 194.226C269.984 194.131 269.786 193.115 269.281 193.115C269.258 193.115 269.236 193.117 269.212 193.121C266.775 193.551 264.332 193.934 261.897 194.392C261.579 193.383 261.245 192.377 260.899 191.381C262.29 191.235 263.689 191.159 265.097 191.155C265.666 191.152 265.667 190.01 265.098 190.01C265.098 190.01 265.098 190.01 265.097 190.01C263.558 190.014 262.029 190.103 260.508 190.275C259.278 186.848 257.91 183.541 256.52 180.491L259.549 180.01C262.218 179.751 266.255 179.244 270.326 178.296L272.215 177.995C273.049 182.37 273.519 186.903 273.783 191.432C274.164 197.975 274.112 204.507 274.101 210.531C271.2 211.812 268.291 212.985 265.411 214.003Z" fill="#20C6C8"/>
<path d="M260.899 191.381C260.77 191.011 260.641 190.642 260.508 190.275C262.03 190.103 263.559 190.014 265.097 190.01C265.098 190.01 265.098 190.01 265.098 190.01C265.667 190.01 265.666 191.152 265.097 191.155C263.689 191.159 262.29 191.234 260.899 191.381Z" fill="#0A9195"/>
<path d="M262.233 195.478C262.123 195.115 262.012 194.754 261.897 194.392C264.332 193.934 266.775 193.551 269.212 193.121C269.236 193.117 269.258 193.115 269.281 193.115C269.786 193.115 269.984 194.131 269.447 194.226C267.044 194.649 264.634 195.028 262.233 195.478Z" fill="#0A9195"/>
<path d="M263.286 199.231C263.194 198.871 263.098 198.51 263.001 198.151C264.272 197.694 265.547 197.258 266.831 196.901C266.867 196.891 266.902 196.886 266.935 196.886C267.413 196.886 267.585 197.86 267.066 198.005C265.798 198.358 264.541 198.784 263.286 199.231Z" fill="#0A9195"/>
<path d="M264.109 202.736C264.032 202.369 263.951 202.001 263.868 201.633C266.002 200.969 268.136 200.309 270.27 199.649C270.31 199.636 270.347 199.631 270.383 199.631C270.852 199.631 271.018 200.595 270.504 200.753C268.372 201.413 266.24 202.072 264.109 202.736Z" fill="#0A9195"/>
<path d="M293.031 198.188C289.559 188.775 286.461 179.062 284.049 168.948C264.408 174.871 256.411 180.254 256.411 180.254C261.016 190.3 266.034 200.194 266.037 210.993C275.137 207.779 284.524 203.017 293.031 198.188Z" fill="#FF5593"/>
<path d="M268.035 184.55C270.154 185.326 272.639 184.407 274.61 183.607C277.018 182.63 279.292 181.342 281.505 179.991C282.134 179.606 281.561 178.614 280.929 179.001C279.02 180.166 277.07 181.263 275.032 182.189C273.116 183.06 270.459 184.222 268.342 183.446C267.646 183.191 267.347 184.297 268.035 184.55Z" fill="#AA3C6E"/>
<path d="M269.704 189.144C272.187 188.06 274.858 187.467 277.362 186.434C278.034 186.156 277.751 185.046 277.069 185.326C274.47 186.4 271.707 187.028 269.128 188.153C268.452 188.448 269.034 189.436 269.704 189.144Z" fill="#AA3C6E"/>
<path d="M269.281 190.617C272.237 191.859 275.662 190.068 278.396 189.004C279.075 188.739 278.791 187.629 278.103 187.896C275.575 188.881 272.318 190.66 269.588 189.513C268.906 189.227 268.61 190.335 269.281 190.617Z" fill="#AA3C6E"/>
<path d="M268.047 196.332C272.614 193.666 277.797 192.348 282.664 190.365C283.339 190.09 283.055 188.979 282.372 189.258C277.411 191.278 272.125 192.625 267.47 195.341C266.834 195.713 267.408 196.704 268.047 196.332Z" fill="#AA3C6E"/>
<path d="M271.196 199.43C274.374 198.204 277.555 196.987 280.623 195.501C281.288 195.179 280.709 194.191 280.047 194.511C277.071 195.953 273.987 197.134 270.903 198.323C270.222 198.586 270.507 199.695 271.196 199.43Z" fill="#AA3C6E"/>
<path d="M272.372 201.434C273.506 201.92 275.088 200.98 276.098 200.526C277.86 199.733 279.574 198.809 281.238 197.826C281.873 197.452 281.298 196.46 280.661 196.836C279.316 197.629 277.939 198.366 276.538 199.056C275.796 199.421 275.042 199.767 274.269 200.063C274.003 200.165 273.154 200.532 272.948 200.444C272.278 200.156 271.693 201.143 272.372 201.434Z" fill="#AA3C6E"/>
<path d="M379.214 149.76C378.26 139.772 377.742 129.591 377.993 119.197C370.584 124.782 349.759 120.33 349.759 120.33C351.648 131.218 352.598 144.813 349.847 155.256C359.466 154.47 369.757 152.259 379.214 149.76Z" fill="#AA3C6E"/>
<path d="M380.589 147.01C379.635 137.023 379.118 126.842 379.367 116.448C371.959 122.032 351.134 117.581 351.134 117.581C353.023 128.469 353.973 142.064 351.222 152.507C360.84 151.721 371.132 149.51 380.589 147.01Z" fill="#FF5593"/>
<path d="M359.901 127.448C361.752 128.74 364.391 128.484 366.5 128.213C369.076 127.883 371.605 127.218 374.09 126.475C374.796 126.265 374.495 125.16 373.785 125.371C371.641 126.011 369.476 126.575 367.269 126.95C365.195 127.304 362.329 127.749 360.48 126.46C359.873 126.036 359.301 127.029 359.901 127.448Z" fill="#AA3C6E"/>
<path d="M360.343 132.315C363.021 131.901 365.754 132.009 368.439 131.649C369.16 131.552 369.169 130.406 368.439 130.504C365.651 130.878 362.819 130.78 360.038 131.211C359.311 131.324 359.621 132.428 360.343 132.315Z" fill="#AA3C6E"/>
<path d="M359.558 133.632C362.099 135.587 365.868 134.729 368.782 134.398C369.508 134.315 369.516 133.169 368.782 133.252C366.086 133.559 362.483 134.449 360.136 132.644C359.551 132.193 358.981 133.188 359.558 133.632Z" fill="#AA3C6E"/>
<path d="M356.906 138.843C362.002 137.431 367.35 137.478 372.562 136.802C373.285 136.709 373.294 135.562 372.562 135.657C367.25 136.346 361.795 136.3 356.602 137.738C355.891 137.935 356.193 139.04 356.906 138.843Z" fill="#AA3C6E"/>
<path d="M359.16 142.642C362.545 142.267 365.932 141.902 369.278 141.248C370.004 141.106 369.695 140.002 368.974 140.144C365.728 140.779 362.445 141.134 359.16 141.497C358.434 141.578 358.426 142.723 359.16 142.642Z" fill="#AA3C6E"/>
<path d="M359.786 144.879C360.758 145.64 362.528 145.134 363.62 144.953C365.526 144.636 367.42 144.178 369.278 143.653C369.988 143.452 369.686 142.347 368.974 142.548C367.471 142.973 365.951 143.334 364.421 143.643C363.61 143.807 362.793 143.949 361.97 144.038C361.686 144.069 360.772 144.207 360.596 144.07C360.021 143.621 359.204 144.425 359.786 144.879Z" fill="#AA3C6E"/>
<path d="M678.599 207.517C680.145 197.604 682.163 187.611 684.977 177.602C676.417 181.182 657.34 171.72 657.34 171.72C656.476 182.737 654.034 196.145 648.783 205.583C658.298 207.199 668.817 207.601 678.599 207.517Z" fill="#16B1B5"/>
<path d="M680.611 205.194C682.158 195.281 684.176 185.289 686.989 175.279C675.697 172.628 659.352 169.396 659.352 169.396C658.489 180.413 656.046 193.821 650.796 203.26C660.31 204.875 670.829 205.278 680.611 205.194Z" fill="#46F2F2"/>
<path d="M665.407 181.124C666.879 182.833 669.499 183.238 671.609 183.498C674.189 183.815 676.802 183.795 679.394 183.69C680.131 183.66 680.112 182.515 679.372 182.545C677.138 182.635 674.9 182.645 672.669 182.463C670.571 182.293 667.684 182.017 666.211 180.309C665.727 179.748 664.928 180.57 665.407 181.124Z" fill="#16B1B5"/>
<path d="M664.63 185.95C667.326 186.21 669.948 186.991 672.639 187.305C673.362 187.391 673.654 186.282 672.923 186.196C670.129 185.869 667.408 185.075 664.608 184.805C663.874 184.734 663.903 185.88 664.63 185.95Z" fill="#16B1B5"/>
<path d="M663.544 187.032C665.522 189.554 669.386 189.654 672.292 190.053C673.015 190.154 673.307 189.044 672.575 188.944C669.887 188.575 666.176 188.546 664.348 186.217C663.893 185.635 663.094 186.459 663.544 187.032Z" fill="#16B1B5"/>
<path d="M659.685 191.425C664.972 191.317 670.142 192.684 675.36 193.318C676.082 193.406 676.375 192.298 675.643 192.209C670.325 191.562 665.051 190.169 659.663 190.279C658.925 190.294 658.946 191.44 659.685 191.425Z" fill="#16B1B5"/>
<path d="M660.928 195.664C664.301 196.138 667.673 196.621 671.077 196.814C671.814 196.856 671.79 195.71 671.055 195.669C667.753 195.481 664.484 195.014 661.211 194.554C660.488 194.452 660.197 195.56 660.928 195.664Z" fill="#16B1B5"/>
<path d="M660.982 197.985C661.736 198.962 663.575 198.91 664.678 199.004C666.604 199.169 668.552 199.193 670.483 199.144C671.22 199.125 671.2 197.98 670.46 197.998C668.9 198.038 667.337 198.012 665.779 197.933C664.951 197.892 664.125 197.827 663.306 197.71C663.022 197.67 662.103 197.578 661.967 197.402C661.521 196.824 660.529 197.402 660.982 197.985Z" fill="#16B1B5"/>
<path d="M453.872 217.841C453.854 217.841 453.909 217.774 454.036 217.639L454.092 217.63L454.082 217.692C453.958 217.791 453.888 217.841 453.872 217.841Z" fill="#73CDC0"/>
<path d="M489.027 220.878C484.268 220.878 479.205 219.952 474.152 219.027C469.099 218.101 464.055 217.175 459.334 217.175C457.534 217.175 455.781 217.31 454.092 217.63C457.446 199.323 457.369 179.431 456.419 160.959C455.533 143.737 456.151 120.709 450.348 104.447L458.985 104.627C459.191 104.581 459.406 104.556 459.625 104.556C459.705 104.556 459.787 104.56 459.869 104.566C460.046 104.58 460.216 104.612 460.381 104.656L472.003 104.898C476.801 104.463 481.794 104.385 486.771 104.385C488.152 104.385 489.534 104.391 490.908 104.398C492.283 104.403 493.652 104.409 495.011 104.409C496.575 104.409 498.125 104.402 499.655 104.377C503.779 104.309 507.984 104.223 512.208 104.223C515.655 104.223 519.114 104.28 522.55 104.452C522.626 104.448 522.701 104.445 522.778 104.445C522.847 104.445 522.916 104.447 522.985 104.452C523.087 104.46 523.187 104.474 523.287 104.493C526.335 104.661 529.363 104.919 532.346 105.314C531.825 122.326 531.633 139.426 530.249 156.447C529.337 167.651 529.043 179.113 527.49 190.246C526.265 199.024 522.918 207.895 522.609 216.693C512.581 218.593 500.886 220.511 490.155 220.86C489.781 220.872 489.404 220.878 489.027 220.878Z" fill="#73CDC0"/>
<path d="M462.713 212.395L462.719 212.333L462.664 212.347C462.447 212.615 462.463 212.631 462.713 212.395Z" fill="white"/>
<path d="M533.649 145.166C533.647 128.088 532.447 111.03 531.585 94.0325C520.798 93.4857 509.589 94.7083 498.925 95.7526C489.987 96.6279 480.304 96.976 471.408 98.5177L449.786 99.8279C456.893 115.564 458.149 138.568 460.432 155.66C462.879 173.994 464.574 193.814 462.719 212.333C473.416 209.386 487.409 213.939 498.925 212.623C509.592 211.403 521.093 208.542 530.932 205.833C530.525 197.039 533.14 187.926 533.648 179.077C534.29 167.855 533.652 156.408 533.649 145.166Z" fill="white"/>
<path d="M473.861 124.25C476.82 125.083 480.136 124.075 482.961 123.177C486.673 121.996 490.222 120.445 493.962 119.322C503.068 116.588 512.44 114.612 521.996 115.045C523.053 115.094 523.048 113.456 521.996 113.408C512.914 112.996 503.995 114.741 495.3 117.223C491.558 118.292 487.994 119.635 484.35 120.971C481.367 122.063 477.496 123.572 474.297 122.671C473.278 122.384 472.846 123.964 473.861 124.25Z" fill="#D7E0E0"/>
<path d="M473.977 132.824C488.642 124.365 505.716 119.215 522.511 117.354C523.55 117.239 523.561 115.601 522.511 115.716C505.418 117.611 488.082 122.797 473.15 131.409C472.236 131.937 473.06 133.352 473.977 132.824Z" fill="#D7E0E0"/>
<path d="M469.855 137.44C483.804 131.165 499.469 130.979 513.97 126.558C514.977 126.251 514.547 124.67 513.534 124.979C498.881 129.447 483.13 129.684 469.028 136.026C468.067 136.459 468.9 137.869 469.855 137.44Z" fill="#D7E0E0"/>
<path d="M476.873 139.254C489.782 137.519 502.691 135.772 515.516 133.483C516.555 133.298 516.113 131.72 515.08 131.904C502.255 134.193 489.346 135.94 476.438 137.675C475.395 137.815 475.841 139.393 476.873 139.254Z" fill="#D7E0E0"/>
<path d="M475.922 147.333C478.014 147.873 480.261 147.534 482.356 147.185C485.649 146.637 488.883 145.712 492.084 144.778C498.488 142.91 504.829 140.511 511.394 139.253C512.43 139.056 511.991 137.477 510.958 137.675C504.827 138.848 498.884 141.037 492.916 142.824C489.75 143.772 486.563 144.674 483.325 145.343C481.127 145.796 478.582 146.328 476.358 145.754C475.334 145.49 474.9 147.069 475.922 147.333Z" fill="#D7E0E0"/>
<path d="M479.232 153.71C487.764 154.318 496.582 152.048 504.696 149.641C505.706 149.341 505.276 147.761 504.26 148.062C496.272 150.432 487.631 152.671 479.232 152.073C478.177 151.998 478.184 153.636 479.232 153.71Z" fill="#D7E0E0"/>
<path d="M483.804 159.818C486.66 162.785 492.624 161.099 496.009 160.25C500.629 159.091 505.252 157.437 509.528 155.33C510.476 154.863 509.645 153.45 508.702 153.915C504.89 155.794 500.805 157.222 496.718 158.366C494.419 159.01 492.063 159.536 489.677 159.702C488.151 159.809 486.112 159.854 484.963 158.66C484.229 157.898 483.073 159.057 483.804 159.818Z" fill="#D7E0E0"/>
<path d="M492.926 168.685C496.952 169.899 501.259 169.404 505.351 168.834C510.2 168.16 515.02 167.025 519.935 166.983C520.992 166.974 520.992 165.336 519.935 165.345C515.57 165.383 511.253 166.263 506.957 166.947C502.544 167.651 497.732 168.423 493.361 167.105C492.347 166.8 491.916 168.381 492.926 168.685Z" fill="#D7E0E0"/>
<path d="M475.326 180.226C489.593 176.014 504.974 178.08 519.123 173.301C520.118 172.965 519.691 171.383 518.686 171.723C504.543 176.5 489.159 174.434 474.892 178.648C473.881 178.946 474.312 180.527 475.326 180.226Z" fill="#D7E0E0"/>
<path d="M481.808 190.643C493.182 189.825 503.354 183.271 514.783 182.564C515.833 182.499 515.839 180.861 514.783 180.926C509.109 181.278 503.643 182.997 498.269 184.744C492.924 186.481 487.461 188.599 481.808 189.005C480.761 189.081 480.753 190.719 481.808 190.643Z" fill="#D7E0E0"/>
<path d="M486.381 192.131C485.689 192.71 484.926 192.704 484.624 193.646C484.477 194.107 484.889 194.753 485.414 194.683C493.718 193.577 502.2 194.546 510.364 192.345C511.382 192.07 510.95 190.491 509.928 190.766C501.91 192.928 493.571 191.959 485.414 193.045C485.677 193.39 485.941 193.736 486.204 194.082C486.242 193.961 487.343 193.454 487.539 193.289C488.35 192.61 487.184 191.457 486.381 192.131Z" fill="#D7E0E0"/>
<path d="M498.593 196.961C501.948 198.279 505.947 196.947 509.333 196.385C510.373 196.212 509.93 194.634 508.897 194.806C505.786 195.323 502.104 196.59 499.028 195.383C498.044 194.996 497.621 196.58 498.593 196.961Z" fill="#D7E0E0"/>
<path d="M462.234 102.121C462.234 103.748 460.914 105.067 459.286 105.067C457.658 105.067 456.338 103.748 456.338 102.121C456.338 100.493 457.658 99.1732 459.286 99.1732C460.914 99.1732 462.234 100.493 462.234 102.121Z" fill="#FF1717"/>
<path d="M525.133 96.8814C525.133 98.5084 523.812 99.828 522.184 99.828C520.556 99.828 519.236 98.5084 519.236 96.8814C519.236 95.2528 520.556 93.9332 522.184 93.9332C523.812 93.9332 525.133 95.2528 525.133 96.8814Z" fill="#579334"/>
<path d="M598.069 207.721C597.113 197.734 596.597 187.553 596.846 177.158C589.437 182.744 568.612 178.292 568.612 178.292C570.501 189.18 571.452 202.775 568.7 213.219C578.318 212.432 588.611 210.221 598.069 207.721Z" fill="#AA3C6E"/>
<path d="M599.444 204.973C598.488 194.985 597.972 184.804 598.221 174.41C590.811 179.995 569.987 175.544 569.987 175.544C571.876 186.431 572.827 200.027 570.075 210.47C579.693 209.683 589.985 207.473 599.444 204.973Z" fill="#FF5593"/>
<path d="M578.755 185.411C580.606 186.702 583.243 186.446 585.353 186.176C587.93 185.845 590.458 185.18 592.943 184.438C593.649 184.227 593.348 183.121 592.638 183.333C590.496 183.974 588.33 184.536 586.123 184.913C584.049 185.265 581.182 185.712 579.333 184.421C578.726 183.997 578.153 184.992 578.755 185.411Z" fill="#AA3C6E"/>
<path d="M579.196 190.278C581.873 189.862 584.608 189.972 587.292 189.611C588.013 189.514 588.023 188.368 587.292 188.466C584.506 188.841 581.672 188.742 578.892 189.173C578.163 189.286 578.474 190.39 579.196 190.278Z" fill="#AA3C6E"/>
<path d="M578.411 191.594C580.953 193.55 584.721 192.691 587.636 192.36C588.361 192.277 588.369 191.131 587.636 191.214C584.939 191.522 581.336 192.411 578.99 190.606C578.404 190.155 577.835 191.151 578.411 191.594Z" fill="#AA3C6E"/>
<path d="M575.76 196.806C580.855 195.393 586.204 195.441 591.417 194.765C592.139 194.671 592.147 193.524 591.417 193.619C586.103 194.308 580.649 194.262 575.455 195.701C574.745 195.898 575.047 197.003 575.76 196.806Z" fill="#AA3C6E"/>
<path d="M578.014 200.605C581.399 200.23 584.786 199.864 588.132 199.21C588.856 199.069 588.549 197.965 587.827 198.106C584.581 198.741 581.298 199.096 578.014 199.46C577.287 199.539 577.279 200.686 578.014 200.605Z" fill="#AA3C6E"/>
<path d="M578.639 202.841C579.612 203.602 581.381 203.096 582.474 202.915C584.38 202.598 586.273 202.14 588.132 201.615C588.842 201.414 588.54 200.309 587.827 200.51C586.326 200.935 584.805 201.296 583.274 201.605C582.463 201.77 581.646 201.911 580.823 202C580.539 202.031 579.625 202.17 579.449 202.032C578.874 201.583 578.057 202.388 578.639 202.841Z" fill="#AA3C6E"/>
<path d="M226.005 270.92C225.05 260.932 224.533 250.751 224.782 240.357C217.374 245.942 196.549 241.49 196.549 241.49C198.438 252.378 199.389 265.974 196.637 276.418C206.255 275.63 216.547 273.419 226.005 270.92Z" fill="#AA3C6E"/>
<path d="M227.38 268.171C226.424 258.183 225.908 248.002 226.158 237.608C218.749 243.193 197.924 238.741 197.924 238.741C199.813 249.63 200.764 263.225 198.012 273.668C207.63 272.881 217.922 270.671 227.38 268.171Z" fill="#FF5593"/>
<path d="M206.692 248.609C208.542 249.9 211.18 249.645 213.289 249.374C215.867 249.043 218.395 248.378 220.879 247.636C221.586 247.425 221.285 246.319 220.575 246.531C218.432 247.172 216.267 247.735 214.06 248.111C211.986 248.464 209.118 248.91 207.27 247.62C206.662 247.196 206.091 248.19 206.692 248.609Z" fill="#AA3C6E"/>
<path d="M207.133 253.476C209.81 253.061 212.544 253.17 215.229 252.81C215.95 252.713 215.959 251.566 215.229 251.664C212.442 252.038 209.609 251.94 206.828 252.371C206.1 252.485 206.41 253.588 207.133 253.476Z" fill="#AA3C6E"/>
<path d="M206.348 254.792C208.889 256.748 212.658 255.889 215.572 255.558C216.298 255.475 216.306 254.329 215.572 254.413C212.877 254.72 209.273 255.609 206.926 253.804C206.341 253.353 205.772 254.349 206.348 254.792Z" fill="#AA3C6E"/>
<path d="M203.696 260.004C208.791 258.591 214.14 258.639 219.353 257.963C220.075 257.869 220.084 256.723 219.353 256.817C214.04 257.506 208.586 257.46 203.392 258.899C202.682 259.096 202.983 260.202 203.696 260.004Z" fill="#AA3C6E"/>
<path d="M205.95 263.803C209.336 263.428 212.723 263.063 216.069 262.408C216.793 262.267 216.486 261.163 215.763 261.304C212.518 261.939 209.235 262.294 205.95 262.658C205.224 262.737 205.216 263.884 205.95 263.803Z" fill="#AA3C6E"/>
<path d="M206.576 266.04C207.548 266.8 209.318 266.295 210.41 266.113C212.316 265.796 214.209 265.338 216.069 264.814C216.778 264.612 216.476 263.507 215.763 263.708C214.261 264.133 212.741 264.494 211.212 264.803C210.4 264.968 209.583 265.109 208.759 265.198C208.476 265.229 207.562 265.368 207.386 265.23C206.812 264.781 205.994 265.586 206.576 266.04Z" fill="#AA3C6E"/>
<path d="M483.623 379.727C483.944 384.371 480.439 388.136 475.793 388.136H449.434C444.788 388.136 441.492 384.371 442.073 379.727L448.734 326.467C449.314 321.822 452.364 318.057 455.543 318.057H473.588C476.767 318.057 479.606 321.822 479.928 326.467L483.623 379.727Z" fill="#3D3D3D"/>
<path d="M476.449 378.255C476.706 381.886 473.906 384.829 470.196 384.829H449.142C445.432 384.829 442.8 381.886 443.263 378.255L448.584 336.627C449.047 332.997 451.483 330.054 454.023 330.054H468.433C470.973 330.054 473.241 332.997 473.499 336.627L476.449 378.255Z" fill="#707070"/>
<path d="M460.387 354.504C453.301 354.504 447.536 360.267 447.536 367.352C447.536 374.436 453.301 380.199 460.387 380.199C467.474 380.199 473.239 374.436 473.239 367.352C473.239 360.267 467.474 354.504 460.387 354.504ZM460.387 381.232C452.73 381.232 446.502 375.005 446.502 367.352C446.502 359.698 452.73 353.471 460.387 353.471C468.044 353.471 474.273 359.698 474.273 367.352C474.273 375.005 468.044 381.232 460.387 381.232Z" fill="#3D3D3D"/>
<path d="M460.387 356.702C454.514 356.702 449.733 361.478 449.733 367.351C449.733 373.224 454.514 378 460.387 378C466.261 378 471.041 373.224 471.041 367.351C471.041 361.478 466.261 356.702 460.387 356.702Z" fill="#3D3D3D"/>
<path d="M460.387 335.086C456.38 335.086 453.12 338.345 453.12 342.351C453.12 346.357 456.38 349.617 460.387 349.617C464.395 349.617 467.655 346.357 467.655 342.351C467.655 338.345 464.395 335.086 460.387 335.086ZM460.387 350.2C456.057 350.2 452.535 346.679 452.535 342.351C452.535 338.023 456.057 334.502 460.387 334.502C464.717 334.502 468.239 338.023 468.239 342.351C468.239 346.679 464.717 350.2 460.387 350.2Z" fill="#3D3D3D"/>
<path d="M460.387 336.329C457.065 336.329 454.362 339.03 454.362 342.351C454.362 345.672 457.065 348.373 460.387 348.373C463.709 348.373 466.411 345.672 466.411 342.351C466.411 339.03 463.709 336.329 460.387 336.329Z" fill="#3D3D3D"/>
<path d="M824.904 657.995H847.275V402.664H824.904V657.995Z" fill="#A0A0A0"/>
<path d="M824.904 657.995H847.275V649.079H824.904V657.995Z" fill="#3F4547"/>
<path d="M833.636 622.294C833.636 623.889 832.611 625.181 831.351 625.181C830.092 625.181 829.067 623.889 829.067 622.294V416.505C829.067 414.91 830.092 413.616 831.351 413.616C832.611 413.616 833.636 414.91 833.636 416.505V622.294Z" fill="#CCCCCC"/>
<path d="M665.372 657.995H687.747V402.664H665.372V657.995Z" fill="#A0A0A0"/>
<path d="M665.372 657.995H687.747V649.079H665.372V657.995Z" fill="#3F4547"/>
<path d="M674.107 622.294C674.107 623.889 673.085 625.181 671.824 625.181C670.562 625.181 669.54 623.889 669.54 622.294V416.505C669.54 414.91 670.562 413.616 671.824 413.616C673.085 413.616 674.107 414.91 674.107 416.505V622.294Z" fill="#CCCCCC"/>
<path d="M409.463 657.995H431.838V402.664H409.463V657.995Z" fill="#A0A0A0"/>
<path d="M409.463 657.995H431.838V649.079H409.463V657.995Z" fill="#3F4547"/>
<path d="M418.198 622.294C418.198 623.889 417.176 625.181 415.914 625.181C414.652 625.181 413.63 623.889 413.63 622.294V416.505C413.63 414.91 414.652 413.616 415.914 413.616C417.176 413.616 418.198 414.91 418.198 416.505V622.294Z" fill="#CCCCCC"/>
<path d="M250.591 657.995H272.966V402.664H250.591V657.995Z" fill="#A0A0A0"/>
<path d="M250.591 657.995H272.966V649.079H250.591V657.995Z" fill="#3F4547"/>
<path d="M259.326 622.294C259.326 623.889 258.304 625.181 257.042 625.181C255.781 625.181 254.758 623.889 254.758 622.294V416.505C254.758 414.91 255.781 413.616 257.042 413.616C258.304 413.616 259.326 414.91 259.326 416.505V622.294Z" fill="#CCCCCC"/>
<path d="M249.65 417.183H848.488V397.535H249.65V417.183Z" fill="#302530"/>
<path d="M231.305 402.12H865.523V389.021H231.305V402.12Z" fill="#60485E"/>
<path d="M865.523 389.021V402.12H691.343V389.021H865.523Z" fill="#423241"/>
<path d="M299.856 355.881C299.477 355.833 299.094 355.786 298.717 355.738C299.323 355.777 299.708 355.825 299.856 355.881Z" fill="#603043"/>
<path d="M300.496 470.194C287.116 472.135 304.824 478.322 293.229 482.539L352.341 491.631C365.845 490.812 390.606 491.43 415.092 492.048C445.343 492.812 475.176 493.574 482.843 491.631C487.807 490.37 513.551 490.989 515.631 488.067C499.552 461.943 320.561 467.28 300.496 470.194Z" fill="#00788C"/>
<path d="M576.299 387.147H604.394V328.536H576.299V387.147Z" fill="#3D3D3D"/>
<path d="M576.299 387.147H589.293V328.536H576.299V387.147Z" fill="#757573"/>
<path d="M654.463 385.046C654.463 387.072 652.822 388.709 650.798 388.709H529.897C527.875 388.709 526.234 387.072 526.234 385.046C526.234 384.037 526.644 383.121 527.307 382.461C527.968 381.799 528.888 381.387 529.897 381.387H650.798C652.822 381.387 654.463 383.028 654.463 385.046Z" fill="#999995"/>
<path d="M654.463 385.046C654.463 387.072 653.312 388.709 651.894 388.709H608.229C606.811 388.709 605.66 387.072 605.66 385.046C605.66 384.037 605.948 383.121 606.413 382.461C606.878 381.799 607.518 381.387 608.229 381.387H651.894C653.312 381.387 654.463 383.028 654.463 385.046Z" fill="#3D3D3D"/>
<path d="M694.313 226.177V337.192C694.313 343.59 690.013 348.913 684.338 350.035C683.615 350.182 682.865 350.255 682.099 350.255H486.698C485.932 350.255 485.184 350.182 484.458 350.035C478.784 348.913 474.484 343.59 474.484 337.192V226.177C474.484 218.966 479.956 213.119 486.698 213.119H682.099C688.845 213.119 694.313 218.966 694.313 226.177Z" fill="#3D3D3D"/>
<path d="M679.755 230.805V332.569C679.755 339.182 674.811 344.541 668.707 344.541H491.98C485.879 344.541 480.933 339.182 480.933 332.569V230.805C480.933 224.191 485.879 218.832 491.98 218.832H668.707C674.811 218.832 679.755 224.191 679.755 230.805Z" fill="#544753"/>
<path d="M680.343 321.037V337.533C680.343 344.064 676.305 349.5 670.976 350.647H483.242C477.912 349.5 473.875 344.064 473.875 337.533V321.037H680.343Z" fill="#CCCCCC"/>
<path d="M579.973 331.64C579.973 334.168 577.238 336.217 573.866 336.217C570.493 336.217 567.76 334.168 567.76 331.64C567.76 329.111 570.493 327.061 573.866 327.061C577.238 327.061 579.973 329.111 579.973 331.64Z" fill="#757573"/>
<path d="M498.896 225.248H488.785V226.332H498.896V225.248Z" fill="#CACEA5"/>
<path d="M556.678 225.248H542.955V226.332H556.678V225.248Z" fill="#CACEA5"/>
<path d="M559.567 225.248V226.332H604.347V225.248H559.567Z" fill="#CACEA5"/>
<path d="M635.045 226.332V225.248H607.236V226.332H617.349V225.609H620.6V226.332H635.045Z" fill="#CACEA5"/>
<path d="M643.351 225.248V226.332H654.545V225.248H643.351Z" fill="#CACEA5"/>
<path d="M498.896 230.303H488.785V231.386H498.896V230.303Z" fill="#CACEA5"/>
<path d="M604.347 230.303H592.792V231.386H604.347V230.303Z" fill="#CACEA5"/>
<path d="M617.349 230.303H607.236V231.386H617.349V230.303Z" fill="#CACEA5"/>
<path d="M643.351 230.303V231.386H654.545V230.303H643.351Z" fill="#CACEA5"/>
<path d="M635.045 230.303H620.6V231.386H635.045V230.303Z" fill="#CACEA5"/>
<path d="M556.678 230.303H542.955V231.386H556.678V230.303Z" fill="#CACEA5"/>
<path d="M559.567 230.303V231.386H587.375V230.303H559.567Z" fill="#CACEA5"/>
<path d="M498.896 235.357H488.785V236.44H498.896V235.357Z" fill="#CACEA5"/>
<path d="M587.375 235.357H549.817V236.44H587.375V235.357Z" fill="#CACEA5"/>
<path d="M594.958 235.357H592.792V236.44H594.958V235.357Z" fill="#CACEA5"/>
<path d="M603.264 235.357V236.44H617.349V235.357H603.264Z" fill="#CACEA5"/>
<path d="M635.045 235.357H620.6V236.44H635.045V235.357Z" fill="#CACEA5"/>
<path d="M643.351 235.357V236.44H654.545V235.357H643.351Z" fill="#CACEA5"/>
<path d="M498.896 240.411H488.785V241.494H498.896V240.411Z" fill="#CACEA5"/>
<path d="M587.375 240.411H549.817V241.494H587.375V240.411Z" fill="#CACEA5"/>
<path d="M594.958 240.411H592.792V241.494H594.958V240.411Z" fill="#CACEA5"/>
<path d="M603.264 240.411V241.494H635.045V240.411H603.264Z" fill="#CACEA5"/>
<path d="M648.768 240.411V241.494H654.546V240.411H648.768Z" fill="#CACEA5"/>
<path d="M647.323 240.411H643.351V241.494H647.323V240.411Z" fill="#CACEA5"/>
<path d="M518.036 245.465H488.785V246.548H518.036V245.465Z" fill="#CACEA5"/>
<path d="M558.845 245.465H549.817V246.548H558.845V245.465Z" fill="#CACEA5"/>
<path d="M603.264 245.465V246.548H647.323V245.465H603.264Z" fill="#CACEA5"/>
<path d="M648.768 245.465V246.548H654.546V245.465H648.768Z" fill="#CACEA5"/>
<path d="M582.319 245.465H571.123V246.548H582.319V245.465Z" fill="#CACEA5"/>
<path d="M541.51 251.24H518.036V250.519H488.785V251.602H541.51V251.24Z" fill="#CACEA5"/>
<path d="M582.319 250.519H571.123V251.602H582.319V250.519Z" fill="#CACEA5"/>
<path d="M603.264 250.519V251.24H599.653V251.602H623.127V250.519H603.264Z" fill="#CACEA5"/>
<path d="M624.21 250.519V251.602H647.323V250.519H624.21Z" fill="#CACEA5"/>
<path d="M648.768 250.519V251.602H654.546V250.519H648.768Z" fill="#CACEA5"/>
<path d="M558.845 250.519H549.817V251.602H558.845V250.519Z" fill="#CACEA5"/>
<path d="M488.785 255.573V256.656H490.229V256.295H493.48V256.656H558.845V255.573H488.785Z" fill="#E0E8BF"/>
<path d="M582.319 255.573H571.123V256.656H582.319V255.573Z" fill="#E0E8BF"/>
<path d="M623.127 255.573H599.653V256.656H623.127V255.573Z" fill="#E0E8BF"/>
<path d="M624.21 255.573V256.656H647.323V255.573H624.21Z" fill="#E0E8BF"/>
<path d="M648.768 255.573V256.656H654.546V255.573H648.768Z" fill="#E0E8BF"/>
<path d="M490.229 260.627H488.785V261.71H490.229V260.627Z" fill="#E0E8BF"/>
<path d="M493.48 260.627V261.71H558.845V260.627H493.48Z" fill="#E0E8BF"/>
<path d="M582.319 260.627H571.123V261.71H582.319V260.627Z" fill="#E0E8BF"/>
<path d="M623.127 260.627H599.653V261.71H623.127V260.627Z" fill="#E0E8BF"/>
<path d="M624.21 260.627V261.71H647.323V260.627H624.21Z" fill="#E0E8BF"/>
<path d="M648.768 260.627V261.71H654.546V260.627H648.768Z" fill="#E0E8BF"/>
<path d="M493.48 265.681V266.764H558.845V265.681H493.48Z" fill="#E0E8BF"/>
<path d="M580.512 265.681H571.123V266.764H580.512V265.681Z" fill="#E0E8BF"/>
<path d="M619.155 265.681H599.653V266.764H619.155V265.681Z" fill="#E0E8BF"/>
<path d="M637.572 265.681V266.764H654.546V265.681H637.572Z" fill="#E0E8BF"/>
<path d="M631.071 265.681H627.461V266.764H631.071V265.681Z" fill="#E0E8BF"/>
<path d="M619.155 270.735H599.653V271.818H619.155V270.735Z" fill="#E0E8BF"/>
<path d="M631.071 270.735H627.461V271.818H631.071V270.735Z" fill="#E0E8BF"/>
<path d="M637.572 270.735V271.818H641.906V270.735H637.572Z" fill="#E0E8BF"/>
<path d="M643.712 270.735V271.818H654.546V270.735H643.712Z" fill="#E0E8BF"/>
<path d="M580.512 270.735H571.123V271.818H580.512V270.735Z" fill="#E0E8BF"/>
<path d="M493.48 270.735V271.818H504.313V270.735H493.48Z" fill="#E0E8BF"/>
<path d="M504.674 270.735V271.818H558.845V270.735H504.674Z" fill="#E0E8BF"/>
<path d="M580.512 275.79H571.123V276.873H580.512V275.79Z" fill="#E0E8BF"/>
<path d="M619.155 275.79H599.653V276.873H619.155V275.79Z" fill="#E0E8BF"/>
<path d="M627.461 275.79V276.873H631.071V275.79H627.461Z" fill="#E0E8BF"/>
<path d="M637.572 275.79V276.873H641.906V275.79H637.572Z" fill="#E0E8BF"/>
<path d="M643.712 275.79V276.873H654.546V275.79H643.712Z" fill="#E0E8BF"/>
<path d="M504.674 275.79V276.873H558.845V275.79H504.674Z" fill="#E0E8BF"/>
<path d="M493.48 275.79V276.873H504.313V275.79H493.48Z" fill="#E0E8BF"/>
<path d="M493.48 280.844V281.566H490.229V280.844H489.868V281.926H504.313V280.844H493.48Z" fill="#E0E8BF"/>
<path d="M504.674 280.844V281.926H580.512V280.844H504.674Z" fill="#E0E8BF"/>
<path d="M610.488 280.844H599.653V281.926H610.488V280.844Z" fill="#E0E8BF"/>
<path d="M611.571 280.844V281.926H641.906V280.844H611.571Z" fill="#E0E8BF"/>
<path d="M643.712 280.844V281.926H654.546V280.844H643.712Z" fill="#E0E8BF"/>
<path d="M527.426 285.898V286.981H580.513V285.898H527.426Z" fill="#E0E8BF"/>
<path d="M489.868 285.898V286.981H504.313V285.898H489.868Z" fill="#E0E8BF"/>
<path d="M504.674 285.898V286.981H522.731V285.898H504.674Z" fill="#E0E8BF"/>
<path d="M611.571 285.898V286.981H641.906V285.898H611.571Z" fill="#E0E8BF"/>
<path d="M610.488 285.898H589.903V286.981H610.488V285.898Z" fill="#E0E8BF"/>
<path d="M643.712 285.898V286.981H654.546V285.898H643.712Z" fill="#E0E8BF"/>
<path d="M496.729 290.951H489.868V292.035H496.729V290.951Z" fill="#E0E8BF"/>
<path d="M498.535 290.951V292.035H504.313V290.951H498.535Z" fill="#E0E8BF"/>
<path d="M504.674 290.951V292.035H522.731V290.951H504.674Z" fill="#E0E8BF"/>
<path d="M527.426 290.951V292.035H580.513V290.951H527.426Z" fill="#E0E8BF"/>
<path d="M610.488 290.951H589.903V292.035H610.488V290.951Z" fill="#E0E8BF"/>
<path d="M611.571 290.951V292.035H641.906V290.951H611.571Z" fill="#E0E8BF"/>
<path d="M643.712 290.951V292.035H654.546V290.951H643.712Z" fill="#E0E8BF"/>
<path d="M542.593 296.006V297.089H599.292V296.006H542.593Z" fill="#E0E8BF"/>
<path d="M496.729 296.006H489.868V297.089H496.729V296.006Z" fill="#E0E8BF"/>
<path d="M506.481 296.006H498.535V297.089H506.481V296.006Z" fill="#E0E8BF"/>
<path d="M510.091 296.006V297.089H522.731V296.006H510.091Z" fill="#E0E8BF"/>
<path d="M527.426 296.006V297.089H540.066V296.006H527.426Z" fill="#E0E8BF"/>
<path d="M601.459 296.006V297.089H610.488V296.006H601.459Z" fill="#E0E8BF"/>
<path d="M611.571 296.006V297.089H654.546V296.006H611.571Z" fill="#E0E8BF"/>
<path d="M601.459 301.06V302.143H610.488V301.06H601.459Z" fill="#E0E8BF"/>
<path d="M496.729 301.06H488.785V302.143H496.729V301.06Z" fill="#E0E8BF"/>
<path d="M510.091 301.06V302.143H522.731V301.06H510.091Z" fill="#E0E8BF"/>
<path d="M506.481 301.06H498.535V302.143H506.481V301.06Z" fill="#E0E8BF"/>
<path d="M527.426 301.06V302.143H540.066V301.06H527.426Z" fill="#E0E8BF"/>
<path d="M542.593 301.06V302.143H599.292V301.06H542.593Z" fill="#E0E8BF"/>
<path d="M611.571 301.06V302.143H654.546V301.06H611.571Z" fill="#E0E8BF"/>
<path d="M496.729 306.114H488.785V307.197H496.729V306.114Z" fill="#E0E8BF"/>
<path d="M520.926 306.114H510.091V307.197H520.926V306.114Z" fill="#E0E8BF"/>
<path d="M527.787 306.114V307.197H540.066V306.114H527.787Z" fill="#E0E8BF"/>
<path d="M506.481 306.114H498.535V307.197H506.481V306.114Z" fill="#E0E8BF"/>
<path d="M542.593 306.114V307.197H558.123V306.114H542.593Z" fill="#E0E8BF"/>
<path d="M560.289 306.114V307.197H574.735V306.114H560.289Z" fill="#E0E8BF"/>
<path d="M577.986 306.114V307.197H599.292V306.114H577.986Z" fill="#E0E8BF"/>
<path d="M601.459 306.114V307.197H654.546V306.114H601.459Z" fill="#E0E8BF"/>
<path d="M506.481 311.168H488.785V312.251H506.481V311.168Z" fill="#E0E8BF"/>
<path d="M520.926 311.168H510.091V312.251H520.926V311.168Z" fill="#E0E8BF"/>
<path d="M527.787 311.168V312.251H558.123V311.168H527.787Z" fill="#E0E8BF"/>
<path d="M560.289 311.168V312.251H574.735V311.168H560.289Z" fill="#E0E8BF"/>
<path d="M577.986 311.168V312.251H599.292V311.168H577.986Z" fill="#E0E8BF"/>
<path d="M601.459 311.168V312.251H654.546V311.168H601.459Z" fill="#E0E8BF"/>
<path d="M591.326 305.595H495.017V233.047H591.326V305.595Z" fill="#353535"/>
<path d="M591.341 238.48H495.002V233.047H591.341V238.48Z" fill="#707070"/>
<path d="M586.281 235.691C586.281 236.733 585.436 237.579 584.393 237.579C583.351 237.579 582.505 236.733 582.505 235.691C582.505 234.649 583.351 233.803 584.393 233.803C585.436 233.803 586.281 234.649 586.281 235.691Z" fill="#FF5821"/>
<path d="M577.217 235.691C577.217 236.733 576.371 237.579 575.328 237.579C574.286 237.579 573.44 236.733 573.44 235.691C573.44 234.649 574.286 233.803 575.328 233.803C576.371 233.803 577.217 234.649 577.217 235.691Z" fill="#889F33"/>
<path d="M568.657 235.691C568.657 236.733 567.812 237.579 566.769 237.579C565.726 237.579 564.88 236.733 564.88 235.691C564.88 234.649 565.726 233.803 566.769 233.803C567.812 233.803 568.657 234.649 568.657 235.691Z" fill="white"/>
<path d="M505.333 245.543H501.556V246.621H505.333V245.543Z" fill="#889F33"/>
<path d="M518.012 245.543V246.621H570.886V245.543H518.012Z" fill="#889F33"/>
<path d="M505.333 249.857H501.556V250.936H505.333V249.857Z" fill="#889F33"/>
<path d="M518.012 249.857V250.936H558.207V250.127H566.84V250.936H567.38V249.857H518.012Z" fill="#889F33"/>
<path d="M505.333 254.172H501.556V255.251H505.333V254.172Z" fill="#889F33"/>
<path d="M518.012 254.172V255.251H553.352V254.172H518.012Z" fill="#889F33"/>
<path d="M567.38 254.711V254.172H566.84V255.251H570.886V254.711H567.38Z" fill="#889F33"/>
<path d="M518.012 258.487V259.026H505.333V258.487H501.556V259.566H532.04V258.487H518.012Z" fill="#889F33"/>
<path d="M546.607 258.487V259.566H553.352V258.487H546.607Z" fill="#889F33"/>
<path d="M571.156 258.487H566.03V259.566H571.156V258.487Z" fill="#889F33"/>
<path d="M518.012 262.802H501.556V263.881H518.012V262.802Z" fill="#889F33"/>
<path d="M573.314 262.802H546.607V263.881H573.314V262.802Z" fill="#889F33"/>
<path d="M518.012 267.117H501.556V268.196H518.012V267.117Z" fill="#889F33"/>
<path d="M573.314 267.117H546.608V267.925H532.04V267.117H530.961V268.196H543.101V268.195H552.272V268.196H553.622V267.386H559.286V268.196H562.524V267.655H573.314V267.117Z" fill="#889F33"/>
<path d="M543.101 271.432H530.961V271.701H518.012V271.432H501.556V272.511H543.101V271.432Z" fill="#889F33"/>
<path d="M553.622 271.432H552.272V272.511H553.622V271.432Z" fill="#889F33"/>
<path d="M562.524 271.432H559.286V272.511H562.524V271.432Z" fill="#889F33"/>
<path d="M518.821 285.994H502.365V287.072H518.821V285.994Z" fill="#FF5821"/>
<path d="M536.356 285.994H533.119V287.072H536.356V285.994Z" fill="#FF5821"/>
<path d="M559.016 285.994H544.719V287.072H559.016V285.994Z" fill="#FF5821"/>
<path d="M518.821 291.118H502.096V292.197H518.821V291.118Z" fill="#FF5821"/>
<path d="M536.356 291.118H533.119V292.197H536.356V291.118Z" fill="#FF5821"/>
<path d="M546.608 291.118H544.719V292.197H546.608V291.118Z" fill="#FF5821"/>
<path d="M559.016 291.118H553.892V292.197H559.016V291.118Z" fill="#FF5821"/>
<path d="M518.821 296.242H501.827V297.32H518.821V296.242Z" fill="#FF5821"/>
<path d="M557.668 296.242H533.119V297.32H557.668V296.242Z" fill="#FF5821"/>
<path d="M669.609 314.712H598.535V261.173H669.609V314.712Z" fill="#353535"/>
<path d="M669.62 265.182H598.524V261.173H669.62V265.182Z" fill="#707070"/>
<path d="M665.886 263.124C665.886 263.893 665.263 264.517 664.492 264.517C663.723 264.517 663.099 263.893 663.099 263.124C663.099 262.354 663.723 261.731 664.492 261.731C665.263 261.731 665.886 262.354 665.886 263.124Z" fill="#FF5821"/>
<path d="M659.198 263.124C659.198 263.893 658.573 264.517 657.804 264.517C657.034 264.517 656.409 263.893 656.409 263.124C656.409 262.354 657.034 261.731 657.804 261.731C658.573 261.731 659.198 262.354 659.198 263.124Z" fill="#889F33"/>
<path d="M652.88 263.124C652.88 263.893 652.256 264.517 651.486 264.517C650.716 264.517 650.092 263.893 650.092 263.124C650.092 262.354 650.716 261.731 651.486 261.731C652.256 261.731 652.88 262.354 652.88 263.124Z" fill="white"/>
<path d="M612.832 272.145H602.926V272.525H612.832V272.145Z" fill="white"/>
<path d="M620.642 272.145V272.525H633.596V272.145H620.642Z" fill="white"/>
<path d="M619.499 272.145H614.165V272.525H619.499V272.145Z" fill="white"/>
<path d="M638.55 272.145H635.503V272.525H638.55V272.145Z" fill="white"/>
<path d="M655.125 272.145H639.122V272.525H655.125V272.145Z" fill="white"/>
<path d="M658.935 272.145H655.695V272.525H658.935V272.145Z" fill="white"/>
<path d="M659.315 272.145V272.525H664.65V272.145H659.315Z" fill="white"/>
<path d="M612.832 273.097H602.926V273.668H612.832V273.097Z" fill="white"/>
<path d="M619.499 273.097H614.165V273.668H619.499V273.097Z" fill="white"/>
<path d="M620.642 273.097V273.668H633.596V273.097H620.642Z" fill="white"/>
<path d="M638.55 273.097H635.503V273.668H638.55V273.097Z" fill="white"/>
<path d="M639.122 273.097V273.668H648.456V273.287H649.028V273.668H655.125V273.097H639.122Z" fill="white"/>
<path d="M658.935 273.097H655.695V273.668H658.935V273.097Z" fill="white"/>
<path d="M659.315 273.097V273.668H664.65V273.097H659.315Z" fill="white"/>
<path d="M619.69 278.048H602.926V278.429H619.69V278.048Z" fill="white"/>
<path d="M620.071 278.048V278.429H626.739V278.048H620.071Z" fill="white"/>
<path d="M628.263 278.048V278.429H633.596V278.048H628.263Z" fill="white"/>
<path d="M648.456 278.048H635.503V278.429H648.456V278.048Z" fill="white"/>
<path d="M656.077 278.048V278.429H664.65V278.048H656.077Z" fill="white"/>
<path d="M655.125 278.048H649.028V278.429H655.125V278.048Z" fill="white"/>
<path d="M620.071 279.001V280.524H626.739V279.001H620.071Z" fill="white"/>
<path d="M619.69 279.001H602.926V280.524H619.69V279.001Z" fill="white"/>
<path d="M628.263 279.001V280.524H633.596V279.001H628.263Z" fill="white"/>
<path d="M655.125 279.001H649.028V280.334H648.456V279.001H635.503V280.524H655.125V279.001Z" fill="white"/>
<path d="M656.077 279.001V280.524H659.125V279.572H661.601V280.524H664.65V279.001H656.077Z" fill="white"/>
<path d="M612.07 286.321H603.116V288.082H608.45V286.427H612.07V286.321Z" fill="white"/>
<path d="M645.98 286.321V286.427H648.646V286.321H645.98Z" fill="white"/>
<path d="M656.268 286.321V286.427H659.697V288.082H664.84V286.321H656.268Z" fill="white"/>
<path d="M651.505 286.321V286.427H655.315V286.321H651.505Z" fill="white"/>
<path d="M620.261 297.092V297.771H626.93V297.092H620.261Z" fill="white"/>
<path d="M621.214 293.474V294.617H626.93V293.474H621.214Z" fill="white"/>
<path d="M603.116 293.474V294.617H609.593V293.664H609.783V294.617H611.117V293.474H603.116Z" fill="white"/>
<path d="M611.308 293.474V294.617H618.547V293.474H611.308Z" fill="white"/>
<path d="M611.308 297.092V297.771H619.88V297.092H611.308Z" fill="white"/>
<path d="M609.593 297.092H603.116V297.771H609.593V297.092Z" fill="white"/>
<path d="M609.784 297.092V297.771H611.117V297.092H609.784Z" fill="white"/>
<path d="M632.834 293.474H628.453V294.617H632.834V293.474Z" fill="white"/>
<path d="M632.834 297.092H628.453V297.771H632.834V297.092Z" fill="white"/>
<path d="M651.505 293.474V294.617H655.315V293.474H651.505Z" fill="white"/>
<path d="M635.693 293.474V294.617H648.646V293.474H635.693Z" fill="white"/>
<path d="M635.037 304.035V305.178H647.991V304.035H635.037Z" fill="white"/>
<path d="M650.598 304.035V305.178H663.552V304.035H650.598Z" fill="white"/>
<path d="M648.838 297.092H635.693V297.771H648.838V297.092Z" fill="white"/>
<path d="M651.505 297.092V297.771H655.315V297.092H651.505Z" fill="white"/>
<path d="M656.268 293.474V294.617H659.315V293.474H656.268Z" fill="white"/>
<path d="M661.792 293.474V294.617H664.84V293.474H661.792Z" fill="white"/>
<path d="M656.268 297.092V297.771H659.315V297.092H656.268Z" fill="white"/>
<path d="M661.792 297.092V297.771H664.84V297.092H661.792Z" fill="white"/>
<path d="M626.784 300.074V300.182H630.213V301.836H635.356V300.074H626.784Z" fill="white"/>
<path d="M622.021 307.228V308.371H625.831V307.228H622.021Z" fill="white"/>
<path d="M606.209 307.228V308.371H619.164V307.228H606.209Z" fill="white"/>
<path d="M619.354 310.847H606.209V311.525H619.354V310.847Z" fill="white"/>
<path d="M622.021 310.847V311.525H625.831V310.847H622.021Z" fill="white"/>
<path d="M626.784 307.228V308.371H629.832V307.228H626.784Z" fill="white"/>
<path d="M632.309 307.228V308.371H635.356V307.228H632.309Z" fill="white"/>
<path d="M626.784 310.847V311.525H629.832V310.847H626.784Z" fill="white"/>
<path d="M632.309 310.847V311.525H635.356V310.847H632.309Z" fill="white"/>
<path d="M612.832 269.288H602.926V270.621H612.832V269.288Z" fill="white"/>
<path d="M619.499 269.288H614.165V270.621H619.499V269.288Z" fill="white"/>
<path d="M620.642 269.288V270.621H633.596V269.288H620.642Z" fill="white"/>
<path d="M655.125 270.621V269.288H635.503V270.621H638.55V269.67H639.122V270.621H655.125Z" fill="white"/>
<path d="M655.695 269.288V270.621H658.935V270.241H659.315V270.621H664.65V269.288H655.695Z" fill="white"/>
<path d="M552.99 383.717L553.015 388.083L606.74 387.77L606.715 383.404L552.99 383.717Z" fill="#9C9E8F"/>
<path d="M448.818 384.323L445.568 388.709L566.774 388.003L566.748 383.637L448.818 384.323Z" fill="#C9CCBC"/>
<path d="M461.171 380.54L448.818 384.323L606.714 383.405L603.417 379.713L461.171 380.54Z" fill="#3D3D3D"/>
<path d="M674.57 388.709H634.998C638.899 382.805 645.362 377.113 657.492 377.849C658.986 377.939 660.403 378.156 661.734 378.479C668.438 380.101 673.013 384.389 674.57 388.709Z" fill="#728425"/>
<path d="M674.57 388.709H647.645C650.527 384.349 654.807 380.103 661.734 378.479C668.438 380.101 673.013 384.389 674.57 388.709Z" fill="#889F33"/>
<path d="M745.367 380.382C745.689 385.027 742.184 388.792 737.538 388.792H711.178C706.532 388.792 703.237 385.027 703.817 380.382L710.479 327.121C711.058 322.477 714.109 318.712 717.289 318.712H735.332C738.512 318.712 741.351 322.477 741.673 327.121L745.367 380.382Z" fill="#3D3D3D"/>
<path d="M738.194 378.911C738.451 382.542 735.651 385.485 731.94 385.485H710.886C707.177 385.485 704.543 382.542 705.008 378.911L710.328 337.283C710.792 333.652 713.228 330.709 715.768 330.709H730.178C732.718 330.709 734.986 333.652 735.243 337.283L738.194 378.911Z" fill="#707070"/>
<path d="M722.132 355.159C715.045 355.159 709.281 360.922 709.281 368.007C709.281 375.09 715.045 380.855 722.132 380.855C729.219 380.855 734.983 375.09 734.983 368.007C734.983 360.922 729.219 355.159 722.132 355.159ZM722.132 381.886C714.476 381.886 708.246 375.661 708.246 368.007C708.246 360.353 714.476 354.126 722.132 354.126C729.788 354.126 736.017 360.353 736.017 368.007C736.017 375.661 729.788 381.886 722.132 381.886Z" fill="#3D3D3D"/>
<path d="M722.132 357.357C716.258 357.357 711.479 362.134 711.479 368.006C711.479 373.879 716.258 378.656 722.132 378.656C728.006 378.656 732.785 373.879 732.785 368.006C732.785 362.134 728.006 357.357 722.132 357.357Z" fill="#3D3D3D"/>
<path d="M722.132 335.742C718.124 335.742 714.865 339 714.865 343.006C714.865 347.012 718.124 350.271 722.132 350.271C726.139 350.271 729.4 347.012 729.4 343.006C729.4 339 726.139 335.742 722.132 335.742ZM722.132 350.856C717.802 350.856 714.28 347.335 714.28 343.006C714.28 338.678 717.802 335.157 722.132 335.157C726.461 335.157 729.984 338.678 729.984 343.006C729.984 347.335 726.461 350.856 722.132 350.856Z" fill="#3D3D3D"/>
<path d="M722.132 336.984C718.81 336.984 716.107 339.685 716.107 343.006C716.107 346.327 718.81 349.028 722.132 349.028C725.454 349.028 728.156 346.327 728.156 343.006C728.156 339.685 725.454 336.984 722.132 336.984Z" fill="#3D3D3D"/>
<path d="M456.87 646.525C450.302 642.81 444.777 632.104 442.138 625.524C437.887 614.92 439.231 633.434 431.046 631.385C427.687 630.545 425.476 635.53 424.691 638.421C422.822 645.317 424.246 656.714 425.437 661.219C435.197 662.494 440.237 662.427 450.081 662.559C455.746 662.634 467.994 662.707 471.405 657.563C468.732 650.369 462.653 649.794 456.87 646.525Z" fill="#212030"/>
<path d="M427.545 593.32C427.383 601.477 426.072 609.161 426.815 617.555C427.445 624.677 425.605 635.818 431.31 641.027C442.546 635.453 442.457 609.986 445.565 599.053L427.545 593.32Z" fill="#FFA471"/>
<path d="M420.533 618.47L443.071 619.895C443.753 617.029 444.421 614.153 445.084 611.26C454.388 570.689 468.85 526.32 471.555 483.589L431.527 474.789C424.383 475.63 420.279 500.486 419.054 509.13C416.344 528.257 418.757 547.83 419.529 567.002C420.187 583.392 421.206 601.138 420.533 618.47Z" fill="#212030"/>
<path d="M554.652 646.525C548.083 642.81 542.559 632.104 539.92 625.524C535.668 614.92 537.013 633.434 528.826 631.385C525.468 630.545 523.257 635.53 522.473 638.421C520.603 645.317 522.027 656.714 523.219 661.219C532.978 662.494 538.018 662.427 547.862 662.559C553.527 662.634 565.776 662.707 569.186 657.563C566.513 650.369 560.434 649.794 554.652 646.525Z" fill="#212030"/>
<path d="M525.328 593.32C525.165 601.477 523.853 609.161 524.596 617.555C525.227 624.677 523.386 635.818 529.091 641.027C540.327 635.453 540.238 609.986 543.346 599.053L525.328 593.32Z" fill="#FFA471"/>
<path d="M569.334 483.589L569.321 483.759C567.438 513.238 559.965 543.5 552.463 572.75C549.102 585.843 545.738 598.732 542.865 611.26C542.203 614.153 541.535 617.028 540.854 619.896L518.315 618.469C518.987 601.139 517.968 583.393 517.31 567.002C516.539 547.83 514.125 528.257 516.834 509.128C517.1 507.255 517.503 504.619 518.04 501.63C519.387 494.143 521.594 484.45 524.687 478.991C526.053 476.577 527.593 474.992 529.31 474.79L569.334 483.589Z" fill="#212030"/>
<path d="M569.321 483.759C568.78 485.402 567.838 487.099 566.438 488.841C560.977 495.646 550.422 498.895 538.704 500.405C531.953 501.275 524.815 501.567 518.04 501.63C510.024 501.702 502.515 501.449 496.763 501.449C480.433 501.449 464.275 501.491 448.182 500.139C439.445 499.405 428.395 500.147 418.934 498.885C415.821 498.469 412.881 497.837 410.249 496.864L414.734 444.468C445.214 441.797 460.145 437.886 489.841 444.141C500.013 446.282 577.16 459.893 569.321 483.759Z" fill="#212030"/>
<path d="M552.463 572.75C549.102 585.843 545.738 598.732 542.865 611.26C542.203 614.153 541.535 617.028 540.854 619.896L518.315 618.469C518.987 601.139 517.968 583.393 517.31 567.002C516.539 547.83 514.125 528.257 516.834 509.128C517.1 507.255 517.503 504.619 518.04 501.63C510.024 501.702 502.515 501.449 496.763 501.449C480.433 501.449 464.275 501.491 448.182 500.139C439.445 499.405 428.395 500.147 418.934 498.885L421.561 473.922C424.624 478.398 445.672 477.587 452.247 477.852C466.762 478.441 481.058 478.097 495.495 478.834C504.219 479.279 514.502 478.923 524.687 478.991C536.054 479.069 547.301 479.684 556.136 482.547C548.958 483.513 543.179 485.946 536.653 488.904C540.61 491.228 547.327 492.401 551.223 494.336C545.994 493.73 541.902 496.229 538.704 500.405C530.488 511.133 528.182 532.952 527.711 541.715C527.191 551.376 528.039 564.704 536.612 570.995C542.164 575.076 547.31 574.43 552.463 572.75Z" fill="#171721"/>
<path d="M430.887 205.278C426.93 205.278 423.71 208.493 423.71 212.445V215.083C423.71 219.035 426.93 222.25 430.887 222.25H435.418C439.375 222.25 442.595 219.035 442.595 215.083V212.445C442.595 208.493 439.375 205.278 435.418 205.278H430.887ZM435.418 223.752H430.887C426.027 223.752 422.073 219.863 422.073 215.083V212.445C422.073 207.664 426.027 203.776 430.887 203.776H435.418C440.279 203.776 444.233 207.664 444.233 212.445V215.083C444.233 219.863 440.279 223.752 435.418 223.752Z" fill="#636363"/>
<path d="M431.314 219.171C431.071 221.181 430.443 228.391 430.557 232.433C430.7 237.463 431.32 242.682 432.3 247.533C426.758 249.569 418.389 242.661 414.789 239.006C409.337 233.467 406.274 226.751 405.367 219.084L431.314 219.171Z" fill="#F2EDEE"/>
<path d="M427.397 223.147C424.142 223.094 421.86 228.428 421.574 231.151C421.044 236.219 425.912 240.965 424.882 245.705C421.134 244.263 416.633 239.383 413.762 236.52C410.834 233.6 405.516 228.004 405.713 223.577L427.397 223.147Z" fill="#F2F0EB"/>
<path d="M434.959 229.878C434.697 238.766 432.935 247.551 432.977 249.097L432.974 249.103C432.981 249.258 432.981 249.418 432.971 249.569C432.961 250.246 432.859 250.924 432.568 251.54C432.269 252.145 431.785 252.686 431.012 253.096C427.824 254.778 423.68 254.933 419.749 254.182C419.094 254.058 418.442 253.908 417.803 253.734C417.364 253.619 416.935 253.492 416.509 253.354C415.048 252.88 413.672 252.296 412.45 251.642C410.635 250.665 409.161 249.53 408.257 248.357C407.9 247.889 407.631 247.414 407.468 246.942C407.458 247.155 407.445 247.384 407.435 247.634C407.428 247.754 407.422 247.875 407.419 248L407.412 248.154C407.402 248.305 407.396 248.459 407.389 248.616L407.382 248.773V248.809C407.376 248.943 407.373 249.078 407.366 249.215C407.359 249.395 407.353 249.581 407.343 249.768C407.336 249.962 407.33 250.162 407.323 250.368C407.304 250.924 407.281 251.513 407.262 252.136C407.232 253.083 407.203 254.074 407.173 255.093C407.166 255.398 407.156 255.705 407.15 256.013C407.101 257.798 407.058 259.645 407.019 261.443C407.016 261.603 407.012 261.764 407.01 261.921C406.979 263.205 406.956 264.462 406.934 265.647C406.904 267.253 406.878 268.729 406.862 269.99C406.822 272.469 406.809 274.099 406.822 274.168L406.73 274.192C404.245 274.857 400.382 275.161 395.936 275.144C387.852 275.118 377.84 274.028 370.695 272.116L370.692 272.112C367.842 271.352 365.447 270.458 363.812 269.45C363.236 269.096 362.758 268.725 362.384 268.346L362.348 268.307L362.165 268.104C362.991 266.63 363.571 263.342 363.986 259.196C364.032 258.738 364.078 258.269 364.118 257.792C364.183 257.074 364.238 256.334 364.294 255.578C364.478 253.043 364.615 250.324 364.723 247.591C364.93 242.191 365.012 236.722 365.071 232.465V232.462C365.104 230.212 365.126 228.299 365.159 226.914C365.185 225.853 365.192 224.93 365.183 224.176C365.035 214.967 363.963 205.795 363.316 196.563C362.326 182.41 420.398 185.373 420.398 185.373C424.778 188.734 426.246 193.692 427.448 199.144C427.467 199.236 427.487 199.327 427.506 199.419C427.873 201.095 428.221 202.819 428.621 204.557C428.666 204.757 428.715 204.96 428.764 205.16C428.804 205.326 428.846 205.497 428.886 205.664L428.891 205.691L428.941 205.883C429.095 206.496 429.255 207.111 429.43 207.724C429.508 207.989 429.583 208.251 429.665 208.516C430.006 209.63 430.392 210.74 430.848 211.837C431.028 212.014 431.198 212.204 431.363 212.4C431.673 212.77 431.962 213.173 432.223 213.605C433.275 215.318 433.967 217.489 434.395 219.912C434.936 222.974 435.061 226.432 434.959 229.878Z" fill="#FFA471"/>
<path d="M432.567 251.538C432.269 252.145 431.785 252.687 431.01 253.096C423.073 257.287 409.21 251.985 407.469 246.943C407.123 253.608 406.5 278.873 406.777 280.167C397.291 282.773 367.143 273.987 362.166 268.104C365.066 262.916 364.961 235.292 365.159 226.915L405.121 217.563C405.71 218.676 405.043 221.063 404.995 222.481C404.93 224.291 404.962 226.199 405.081 228.006C405.301 231.447 406.26 235.026 407.747 238.208C410.501 244.094 415.799 250.417 422.458 251.957C425.246 252.601 429.247 252.672 432.567 251.538Z" fill="#E07F4F"/>
<path d="M438.559 224.585C438.292 224.105 436.569 223.295 436.064 222.728C434.985 221.521 434.431 219.862 433.69 218.449C432.679 216.514 431.269 212.638 429.823 211.75L430.426 230.788C432.626 230.028 441.579 230.019 438.559 224.585Z" fill="#FFA471"/>
<path d="M432.223 213.605C432.133 213.691 432.037 213.763 431.938 213.824C431.673 213.995 431.385 214.1 431.077 214.126C430.422 214.179 429.783 213.867 429.246 213.301C428.499 212.515 427.958 211.234 427.83 209.751C427.782 209.168 427.801 208.601 427.883 208.077C428.031 207.085 428.387 206.237 428.886 205.663L428.891 205.691L428.941 205.883C429.095 206.496 429.255 207.111 429.43 207.724C429.508 207.989 429.583 208.251 429.665 208.516C430.006 209.63 430.392 210.74 430.848 211.837C431.028 212.014 431.198 212.204 431.363 212.4C431.673 212.77 431.962 213.173 432.223 213.605Z" fill="#121C26"/>
<path d="M429.43 207.724C428.895 207.806 428.371 207.926 427.883 208.077C426.57 208.48 425.518 209.102 425.246 209.843C425.59 207.717 426.91 205.926 428.764 205.16C428.804 205.326 428.846 205.497 428.886 205.663L428.891 205.691L428.941 205.883C429.095 206.496 429.255 207.111 429.43 207.724Z" fill="#121C26"/>
<path d="M430.728 200.329C429.409 198.989 425.892 198.607 423.7 200.073C421.366 201.34 418.427 204.676 418.843 205.735C419.041 206.601 425.044 205.422 426.504 205.045C427.934 204.572 434.293 204.101 430.728 200.329Z" fill="#49211C"/>
<path d="M362.44 180.178C367.608 164.976 382.783 166.734 400.222 167.334C418.842 167.974 432.505 174.998 432.505 174.998C432.236 187.123 433.379 187.869 428.553 198.9C425.524 199.306 415.82 215.685 403.993 207.078C408.294 214.485 408.863 233.388 404.923 241.755C401.315 249.408 398.591 244.327 392.431 248.78C391.23 246.592 389.496 244.415 387.755 242.914C388.424 247.25 389.879 251.797 389.147 256.331C384.035 259.126 379.331 259.361 373.393 259.636C364.802 260.033 363.708 259.166 361.191 251.412C357.329 239.519 357.995 233.258 352.587 221.939C348.479 210.171 340.56 191.364 362.44 180.178Z" fill="#49211C"/>
<path d="M402.109 218.035L442.922 210.972L443.415 213.429L403.726 220.483L402.109 218.035Z" fill="#636363"/>
<path d="M396.096 217.36C401.333 211.356 407.453 218.926 409.887 221.918C409.887 221.918 409.828 232.351 407.014 234.764C403.608 237.685 398.668 234.897 396.489 231.937C393.596 228.008 392.175 221.859 396.096 217.36Z" fill="#FFA471"/>
<path d="M396.306 220.688C397.946 216.132 402.3 218.325 404.222 221.391C397.503 218.842 396.778 226.603 398.453 230.989C396.812 227.904 394.999 224.322 396.306 220.688Z" fill="#E07F4F"/>
<path d="M458.956 446.329C458.841 446.391 458.723 446.453 458.605 446.515C450.625 450.698 435.543 454.895 426.128 456.916C423.746 457.423 421.731 457.796 420.281 457.993C404.271 460.174 388.786 459.933 373.183 456.464C369.064 441.433 359.548 427.561 356.055 412.212C352.023 394.483 345.318 368.808 344.466 350.398C343.834 336.775 335.146 301.319 335.971 287.592C336.282 282.414 340.032 282.81 344.057 283.206C347.873 283.581 351.936 283.956 353.55 279.581L353.648 271.359C353.022 266.408 352.141 261.187 352.961 256.089C368.032 255.506 388.801 253.547 402.116 259.835C414.072 265.484 428.516 267.432 439.114 276.982C445.206 282.467 447.146 328.798 450.251 370.691C452.738 404.215 455.964 434.899 462.664 439.556C465.488 441.521 463.434 443.918 458.956 446.329Z" fill="#FF5821"/>
<path d="M458.605 446.515C450.625 450.698 435.543 454.895 426.128 456.916C423.435 435.983 431.012 405.077 427.074 389.947C422.987 374.254 421.695 360.665 419.212 344.759C418.132 337.826 419.367 323.362 419.015 316.387C418.763 311.4 420.038 305.268 418.357 300.7L435.392 342.617C436.742 353.381 444.843 361.549 450.251 370.692C452.738 404.215 455.964 434.899 462.664 439.556C463.47 440.116 465.402 442.996 458.605 446.515Z" fill="#D83A0F"/>
<path d="M419.831 252.453C419.831 262.581 411.618 270.791 401.486 270.791C391.354 270.791 383.141 262.581 383.141 252.453C383.141 242.325 391.354 234.114 401.486 234.114C411.618 234.114 419.831 242.325 419.831 252.453Z" fill="#212030"/>
<path d="M417.866 252.453C417.866 259.867 411.852 265.879 404.434 265.879C397.016 265.879 391.003 259.867 391.003 252.453C391.003 245.037 397.016 239.026 404.434 239.026C411.852 239.026 417.866 245.037 417.866 252.453Z" fill="#3C3C56"/>
<path d="M416.555 252.453C416.555 257.426 412.522 261.458 407.546 261.458C402.571 261.458 398.537 257.426 398.537 252.453C398.537 247.479 402.571 243.447 407.546 243.447C412.522 243.447 416.555 247.479 416.555 252.453Z" fill="#212030"/>
<path d="M408.202 248.959C393.331 253.69 369.507 250.234 355.272 244.497C355.338 247.377 354.638 253.635 354.805 256.491C362.082 259.691 369.677 260.034 377.736 260.421C386.097 260.823 401.603 258.639 409.185 255.181L408.202 248.959Z" fill="#8A8A8E"/>
<path d="M412.46 251.907C412.46 253.896 410.848 255.509 408.857 255.509C406.867 255.509 405.254 253.896 405.254 251.907C405.254 249.918 406.867 248.305 408.857 248.305C410.848 248.305 412.46 249.918 412.46 251.907Z" fill="#8A8A8E"/>
<path d="M478.12 386.476C477.855 386.695 477.586 386.911 477.31 387.121C473.082 390.353 467.584 392.04 456.934 383.771C455.739 382.845 454.481 381.793 453.154 380.604C444.686 373.03 437.639 357.744 431.124 348.836C430.377 347.814 429.63 346.76 428.887 345.669C418.191 330.023 408.088 307.659 408.359 288.849C408.474 280.92 410.289 274.908 417.944 272.737C423.094 271.277 432.772 265.503 445.256 285.326C445.256 285.326 465.688 328.038 475.178 358.156C479.608 372.218 481.655 383.535 478.12 386.476Z" fill="#FF5821"/>
<path d="M549.977 367.101C542.401 364.579 533.199 369.444 526.299 372.479L533.294 379.66C538.636 380.686 540.85 380.719 546.215 380.567C560.887 380.152 562.341 382.458 567.276 381.135C566.197 374.616 557.455 369.589 549.977 367.101Z" fill="#FFA471"/>
<path d="M539.026 381.23C538.397 382.543 524.088 386.165 510.011 389.27C498.306 391.846 486.759 394.066 483.374 394.299C473.092 395 463.015 391.214 456.934 383.771C453.78 379.91 451.7 375.069 451.222 369.358C451.186 368.962 451.16 368.56 451.143 368.154L464.198 358.294C467.919 357.492 471.483 357.559 475.178 358.156C488.253 360.259 502.958 368.973 532.094 369.215C532.094 369.215 540.494 378.155 539.026 381.23Z" fill="#FF5821"/>
<path d="M510.011 389.27C498.306 391.846 486.759 394.066 483.374 394.299C473.092 395 463.015 391.214 456.934 383.771C455.739 382.845 454.481 381.793 453.154 380.604C444.686 373.03 437.639 357.744 431.124 348.836C430.377 347.814 429.63 346.76 428.887 345.669C423.703 330.472 417.716 321.507 418.231 305.954C423.636 331.005 446.317 362.583 451.222 369.358C455.192 374.85 459.7 379.976 465.255 384.465C464.573 380.797 464.741 376.645 465.023 372.941C467.994 380.313 472.105 384.669 477.31 387.121C483.008 389.806 490.018 390.215 498.29 389.806C502.083 389.62 506.047 389.472 510.011 389.27Z" fill="#D83A0F"/>
<path d="M335.282 556.524C335.282 558.579 334.124 560.246 332.698 560.246H315.322C313.895 560.246 312.738 558.579 312.738 556.524C312.738 554.47 313.895 552.802 315.322 552.802H332.698C334.124 552.802 335.282 554.47 335.282 556.524Z" fill="#44283E"/>
<path d="M327.666 558.127C333.797 557.15 340.051 557.607 346.182 556.589C352.385 555.56 357.493 552.145 362.597 548.683C367.635 545.267 372.618 541.733 378.221 539.282C384.264 536.64 391.241 536.781 397.67 535.889C399.558 535.627 398.752 532.77 396.882 533.029C390.434 533.924 383.657 533.876 377.546 536.374C371.928 538.672 366.928 542.146 361.942 545.551C356.747 549.097 351.695 552.591 345.393 553.73C339.291 554.836 333.008 554.29 326.878 555.268C324.993 555.569 325.797 558.426 327.666 558.127Z" fill="#44283E"/>
<path d="M521.642 506.986V511.553C521.642 516.466 517.659 520.448 512.744 520.448H309.865C304.95 520.448 300.966 516.466 300.966 511.553V506.986C300.966 502.073 304.95 498.091 309.865 498.091H512.744C517.659 498.091 521.642 502.073 521.642 506.986Z" fill="#553D57"/>
<path d="M530.924 498.091V498.904C530.924 504.443 527.094 509.192 521.642 511.203V511.553C521.642 516.466 517.659 520.448 512.744 520.448H387.722C383.039 520.448 379.195 516.827 378.851 512.229C378.833 512.007 378.824 511.781 378.824 511.553V506.986C378.824 502.073 382.811 498.091 387.722 498.091H530.924Z" fill="#44283E"/>
<path d="M425.26 544.85H402.724L332.962 509.27H493.841L425.26 544.85Z" fill="#44283E"/>
<path d="M416.523 544.849H402.48L332.716 509.27H382.905L416.523 544.849Z" fill="#553D57"/>
<path d="M407.829 584.584H418.704V546.628H407.829V584.584Z" fill="#44283E"/>
<path d="M408.374 620.069H409.463V584.584H408.374V620.069Z" fill="#FFFEF8"/>
<path d="M409.463 620.069H413.63V584.584H409.463V620.069Z" fill="#CDBDC4"/>
<path d="M413.63 620.069H415.992V584.584H413.63V620.069Z" fill="#F0F0F0"/>
<path d="M415.992 584.584H408.374V563.234H415.992V584.584Z" fill="#572F4B"/>
<path d="M421.968 620.069H404.566V563.234H421.968V620.069Z" fill="#44283E"/>
<path d="M412.183 620.069H404.566V563.234H412.183V620.069Z" fill="#69698E"/>
<path d="M427.502 548.505C427.502 550.526 426.211 552.164 424.618 552.164H401.939C400.347 552.164 399.057 550.526 399.057 548.505C399.057 547.494 399.379 546.582 399.901 545.919C400.423 545.258 401.143 544.849 401.939 544.849H424.618C426.211 544.849 427.502 546.486 427.502 548.505Z" fill="#553D57"/>
<path d="M427.502 548.505C427.502 550.526 426.211 552.164 424.618 552.164H416.164C414.572 552.164 413.28 550.526 413.28 548.505C413.28 547.494 413.602 546.582 414.124 545.919C414.647 545.258 415.369 544.849 416.164 544.849H424.618C426.211 544.849 427.502 546.486 427.502 548.505Z" fill="#44283E"/>
<path d="M419.188 616.291V648.081C419.188 649.808 418.384 651.346 417.129 652.339C416.693 652.689 416.201 652.971 415.667 653.172C415.07 653.398 414.424 653.519 413.75 653.519C413.078 653.519 412.43 653.398 411.834 653.172C411.3 652.971 410.808 652.689 410.369 652.339C410.206 652.211 410.051 652.075 409.903 651.928C408.918 650.943 408.311 649.582 408.311 648.081V616.291C408.311 614.569 409.114 613.03 410.369 612.036C410.808 611.686 411.3 611.404 411.834 611.203C412.43 610.978 413.078 610.856 413.75 610.856C414.424 610.856 415.07 610.978 415.667 611.203C416.201 611.404 416.693 611.686 417.129 612.036C417.292 612.165 417.447 612.3 417.594 612.449C418.58 613.434 419.188 614.791 419.188 616.291Z" fill="#44283E"/>
<path d="M414.532 636.216C414.532 636.648 414.181 636.998 413.749 636.998C413.316 636.998 412.966 636.648 412.966 636.216V617.616C412.966 617.185 413.316 616.834 413.749 616.834C414.181 616.834 414.532 617.185 414.532 617.616V636.216Z" fill="#553D57"/>
<path d="M416.518 646.157H409.147V635.472H416.518V646.157Z" fill="#44283E"/>
<path d="M411.92 646.157H409.147V635.472H411.92V646.157Z" fill="#69698E"/>
<path d="M409.996 653.152C409.996 659.082 405.188 663.89 399.254 663.89C393.322 663.89 388.514 659.082 388.514 653.152C388.514 647.222 393.322 642.415 399.254 642.415C405.188 642.415 409.996 647.222 409.996 653.152Z" fill="#2D2D3F"/>
<path d="M404.625 653.152C404.625 656.117 402.221 658.521 399.254 658.521C396.288 658.521 393.884 656.117 393.884 653.152C393.884 650.187 396.288 647.783 399.254 647.783C402.221 647.783 404.625 650.187 404.625 653.152Z" fill="#1D1D28"/>
<path d="M417.853 649.569H386.734C387.074 644.043 393.906 639.635 402.291 639.635C403.461 639.635 404.602 639.72 405.7 639.883C412.46 640.885 417.558 644.814 417.853 649.569Z" fill="#69698E"/>
<path d="M417.853 649.569H393.547C393.845 644.814 398.944 640.885 405.7 639.883C412.46 640.885 417.558 644.814 417.853 649.569Z" fill="#44283E"/>
<path d="M321.157 644.765H313.786V634.079H321.157V644.765Z" fill="#44283E"/>
<path d="M316.559 644.765H313.786V634.079H316.559V644.765Z" fill="#49363E"/>
<path d="M314.636 651.759C314.636 657.69 309.826 662.498 303.893 662.498C297.961 662.498 293.153 657.69 293.153 651.759C293.153 645.829 297.961 641.022 303.893 641.022C309.826 641.022 314.636 645.829 314.636 651.759Z" fill="#2D2D3F"/>
<path d="M309.265 651.759C309.265 654.725 306.86 657.129 303.893 657.129C300.928 657.129 298.523 654.725 298.523 651.759C298.523 648.795 300.928 646.391 303.893 646.391C306.86 646.391 309.265 648.795 309.265 651.759Z" fill="#1D1D28"/>
<path d="M322.492 648.177H291.372C291.713 642.652 298.544 638.243 306.929 638.243C308.101 638.243 309.239 638.328 310.339 638.492C317.099 639.493 322.197 643.422 322.492 648.177Z" fill="#69698E"/>
<path d="M322.492 648.177H298.186C298.484 643.422 303.583 639.493 310.339 638.492C317.099 639.493 322.197 643.422 322.492 648.177Z" fill="#44283E"/>
<path d="M404.615 603.143C398.588 604.207 318.001 621.562 307.523 632.298C304.709 635.182 311.712 636.802 314.839 636.215L404.615 619.328V603.143Z" fill="#44283E"/>
<path d="M404.615 603.143V611.544C391.161 613.744 319.956 625.675 308.268 633.231C307.567 633.683 307.479 634.343 307.601 634.829C306.758 634.17 306.533 633.314 307.524 632.3C318.001 621.562 398.591 604.207 404.615 603.143Z" fill="#69698E"/>
<path d="M404.553 603.143V604.921C398.736 605.951 321.662 622.26 306.932 633.047C307.036 632.81 307.211 632.56 307.463 632.3C317.94 621.562 398.53 604.207 404.553 603.143Z" fill="#69698E"/>
<path d="M505.401 644.765H512.771V634.079H505.401V644.765Z" fill="#44283E"/>
<path d="M509.998 644.765H512.772V634.079H509.998V644.765Z" fill="#49363E"/>
<path d="M511.922 651.759C511.922 657.69 516.731 662.498 522.663 662.498C528.596 662.498 533.406 657.69 533.406 651.759C533.406 645.829 528.596 641.022 522.663 641.022C516.731 641.022 511.922 645.829 511.922 651.759Z" fill="#2D2D3F"/>
<path d="M517.293 651.759C517.293 654.725 519.698 657.129 522.663 657.129C525.63 657.129 528.036 654.725 528.036 651.759C528.036 648.795 525.63 646.391 522.663 646.391C519.698 646.391 517.293 648.795 517.293 651.759Z" fill="#1D1D28"/>
<path d="M504.067 648.177H535.185C534.846 642.652 528.013 638.243 519.629 638.243C518.456 638.243 517.318 638.328 516.218 638.492C509.458 639.493 504.36 643.422 504.067 648.177Z" fill="#69698E"/>
<path d="M504.067 648.177H528.371C528.074 643.422 522.975 639.493 516.218 638.492C509.458 639.493 504.36 643.422 504.067 648.177Z" fill="#44283E"/>
<path d="M421.943 603.143C427.969 604.207 508.558 621.562 519.035 632.298C521.848 635.182 514.846 636.802 511.718 636.215L421.943 619.328V603.143Z" fill="#44283E"/>
<path d="M421.944 603.143L421.943 611.544C435.397 613.744 506.602 625.675 518.29 633.231C518.991 633.683 519.078 634.343 518.956 634.829C519.798 634.17 520.024 633.314 519.034 632.3C508.558 621.562 427.967 604.207 421.944 603.143Z" fill="#69698E"/>
<path d="M422.005 603.143V604.921C427.82 605.951 504.895 622.26 519.625 633.047C519.522 632.81 519.347 632.56 519.095 632.3C508.619 621.562 428.028 604.207 422.005 603.143Z" fill="#69698E"/>
<path d="M499.452 403.421C496.162 401.411 489.253 401.048 485.507 401.048H419.249C421.48 406.863 423.289 412.871 425.171 418.84H487.138L487.217 418.86H487.22L487.253 418.882L487.262 418.887C487.449 419.036 487.642 419.195 487.784 419.338L487.79 419.347L487.832 419.41C487.969 419.619 488.093 419.837 488.211 420.059L488.214 420.065C488.357 420.507 488.479 420.951 488.58 421.405V421.407C488.656 422.834 488.603 424.275 488.603 425.699V484.085C488.603 488.933 492.652 492.981 497.502 492.981C498.222 492.981 498.922 492.893 499.596 492.72C503.464 491.763 506.4 488.214 506.4 484.085V422.454C506.4 414.827 506.043 407.453 499.452 403.421Z" fill="#553D57"/>
<path d="M487.348 418.781C487.283 418.701 487.25 418.659 487.242 418.644C487.25 418.647 487.298 418.703 487.362 418.784L487.348 418.781Z" fill="#553D57"/>
<path d="M487.401 418.848L487.399 418.842L487.414 418.845L487.423 418.857L487.401 418.848Z" fill="#553D57"/>
<path d="M487.585 419.071L487.479 418.939L487.494 418.943L487.591 419.074L487.585 419.071Z" fill="#553D57"/>
<path d="M493.873 409.945C490.588 407.934 482.712 407.572 478.963 407.572H421.579C422.829 411.305 423.986 415.081 425.171 418.84H487.138L487.217 418.86H487.22L487.253 418.882L487.262 418.887C487.449 419.036 487.642 419.195 487.784 419.338L487.79 419.347L487.832 419.41C487.969 419.619 488.093 419.837 488.211 420.059L488.214 420.065C488.357 420.507 488.479 420.951 488.58 421.405V421.407C488.656 422.834 488.603 424.275 488.603 425.699V484.085C488.603 488.933 492.652 492.981 497.502 492.981C498.222 492.981 498.922 492.893 499.596 492.72C499.771 492.041 499.859 491.336 499.859 490.61V428.978C499.859 421.351 500.468 413.977 493.873 409.945Z" fill="#44283E"/>
<path d="M490.908 406.312C498.414 406.421 501.827 413.285 501.661 420.026C501.625 421.461 503.849 421.457 503.884 420.026C503.983 416.001 503.111 411.791 500.519 408.602C498.126 405.66 494.675 404.143 490.908 404.088C489.472 404.067 489.473 406.291 490.908 406.312Z" fill="#717199"/>
<path d="M293.391 264.232C293.408 271.078 298.971 276.613 305.817 276.598L361.286 276.472C368.133 276.456 373.671 270.895 373.656 264.05L373.611 244.215C373.595 237.371 368.031 231.834 361.184 231.85L305.716 231.976C298.869 231.991 293.331 237.552 293.347 244.398L293.391 264.232Z" fill="#00B8D6"/>
<path d="M295.657 271.355C294.399 269.578 293.597 267.455 293.423 265.157C293.424 265.157 293.426 265.157 293.427 265.157C293.603 267.455 294.405 269.578 295.662 271.354H295.661C295.66 271.355 295.658 271.355 295.657 271.355Z" fill="#E0D3C7"/>
<path d="M295.662 271.354C294.405 269.578 293.603 267.455 293.427 265.157C293.665 265.172 293.904 265.18 294.144 265.18C294.167 265.18 294.19 265.18 294.214 265.18L349.682 265.055C356.53 265.039 362.068 259.477 362.052 252.632L362.006 232.799C362.005 232.487 361.993 232.179 361.968 231.873C368.448 232.265 373.591 237.635 373.605 244.215L373.65 264.049C373.655 266.15 373.137 268.129 372.218 269.865H372.216C363.823 269.321 353.279 269.113 342.995 269.113C326.189 269.113 310.075 269.668 305.171 270.219C301.916 270.585 298.663 270.971 295.662 271.354Z" fill="#009BB7"/>
<path d="M441.043 455.851C440.656 464.473 441.256 475.827 438.858 484.875C438.546 486.051 438.186 487.187 437.764 488.274C437.741 488.346 437.711 488.418 437.682 488.49C437.505 488.942 433.309 512.838 433.105 513.27C413.276 513.516 386.765 513.987 362.661 514.193C349.055 514.308 336.217 514.338 325.78 514.193C310.772 513.987 300.723 513.417 300.483 512.226C294.279 512.226 288.936 506.737 288.359 499.556L287.54 489.335L287.288 486.178L271.397 288.197C271.341 287.515 271.331 286.844 271.364 286.182C271.681 279.558 276.219 274.131 282.187 273.653C283.57 273.064 288.985 272.213 295.661 271.354C298.662 270.971 301.915 270.585 305.171 270.219C313.076 269.331 350.107 268.43 372.216 269.865H372.223C376.157 270.117 379.62 270.448 382.362 270.863C401.217 273.719 409.971 284.519 413.205 303.591C413.312 304.246 413.427 304.901 413.538 305.559C414.514 311.264 415.507 316.966 416.516 322.673C416.949 325.106 417.381 327.54 417.817 329.976C419.713 340.534 421.669 351.114 423.674 361.728C423.995 363.444 424.323 365.159 424.647 366.879C424.782 367.579 424.922 368.287 425.07 368.991C429.109 388.414 437.764 407.617 439.779 427.236C440.141 430.802 440.476 434.405 440.722 438.023C441.128 443.947 441.305 449.917 441.043 455.851Z" fill="#00B8D6"/>
<path d="M348.432 495.689C319.036 495.689 289.628 489.829 287.54 489.335L287.288 486.178L275.604 340.611L275.511 339.454L275.309 336.932L275.217 335.796L274.939 332.329L274.846 331.172L274.563 327.641L274.47 326.488L272.416 300.904L271.397 288.197C271.362 287.771 271.345 287.349 271.345 286.931C271.345 286.68 271.351 286.431 271.364 286.182C273.529 285.587 275.718 284.928 277.896 284.267C283.213 282.646 288.48 280.992 293.309 280.115C294.391 279.915 295.452 279.758 296.484 279.646C301.869 279.071 307.196 278.852 312.489 278.852C323.583 278.852 334.535 279.812 345.629 280.461C359.945 281.3 376.933 281.12 388.684 290.479C400.631 299.995 400.664 317.028 402.584 330.572C406.993 361.66 410.532 394.564 410.499 426.807C410.482 441.173 412.831 460.953 407.55 473.97C405.754 478.394 402.678 481.983 398.649 484.874C387.115 493.149 367.773 495.689 348.432 495.689Z" fill="#009BB7"/>
<path d="M531.579 498.206V500.869C531.579 506.407 525.928 511.158 517.883 513.169C515.239 513.827 512.343 514.194 509.3 514.194H325.78C310.772 513.987 300.723 513.417 300.483 512.226C294.279 512.226 288.936 506.737 288.359 499.556L287.54 489.335L287.288 486.178C290.2 485.344 293.459 484.874 296.906 484.874H509.3C521.604 484.874 531.579 490.841 531.579 498.206Z" fill="#00B8D6"/>
<path d="M624.224 362.715C624.224 363.46 624.205 364.197 624.167 364.926L624.164 364.994L624.162 365.029L624.16 365.065C624.151 365.248 624.141 365.428 624.127 365.608C623.853 369.785 622.987 373.698 621.659 377.154C620.688 379.686 619.467 381.972 618.05 383.937C616.574 385.983 614.885 387.679 613.036 388.943H597.437C595.73 387.776 594.158 386.239 592.765 384.399C588.772 379.127 586.25 371.367 586.25 362.715C586.25 360.418 586.428 358.185 586.763 356.044H623.709C623.972 357.721 624.138 359.455 624.198 361.23C624.215 361.723 624.224 362.217 624.224 362.715Z" fill="#FF2E2E"/>
<path d="M624.142 364.803C624.084 364.564 624.174 365.221 624.163 364.973C624.154 364.726 624.088 365.382 624.137 365.133C624.22 364.718 623.992 365.369 624.161 365.062L624.283 364.876C624.448 364.634 624.055 365.153 624.253 364.921C624.39 364.759 624.547 364.612 624.705 364.469C624.779 364.402 624.857 364.338 624.934 364.275C625.21 364.045 624.677 364.466 624.973 364.243C625.156 364.108 625.345 363.981 625.535 363.855C625.99 363.557 626.466 363.294 626.947 363.042C627.423 362.793 627.912 362.568 628.407 362.355C628.123 362.479 628.538 362.303 628.561 362.294C628.689 362.243 628.815 362.194 628.943 362.145C629.237 362.033 629.535 361.928 629.833 361.828C630.323 361.664 630.82 361.521 631.322 361.398C631.555 361.34 631.789 361.29 632.024 361.245C632.136 361.224 632.248 361.205 632.361 361.186C632.634 361.143 632.076 361.215 632.505 361.169C633.592 361.054 634.328 361.204 635.356 361.575C635.801 361.736 635.12 361.459 635.542 361.653C635.672 361.711 635.797 361.779 635.922 361.846C636.166 361.976 636.397 362.131 636.622 362.292C636.38 362.119 636.727 362.385 636.747 362.403C636.848 362.49 636.944 362.583 637.039 362.677C637.134 362.771 637.222 362.87 637.309 362.97C637.417 363.101 637.423 363.104 637.33 362.982C637.382 363.052 637.433 363.123 637.482 363.196C637.633 363.412 637.763 363.643 637.883 363.877C637.899 363.908 638.07 364.305 637.95 364.011C638 364.135 638.043 364.262 638.084 364.389C638.169 364.647 638.228 364.912 638.278 365.179C638.362 365.621 638.253 364.886 638.3 365.338C638.319 365.526 638.324 365.715 638.327 365.904C638.348 366.952 637.965 368.256 637.525 369.187C636.476 371.407 634.7 372.799 632.484 373.949C631.34 374.542 630.373 374.907 629.069 375.331C627.84 375.731 626.587 376.054 625.329 376.347C623.578 376.757 621.731 377.008 620.054 377.67C619.026 378.077 618.128 378.612 617.488 379.537C616.785 380.551 616.952 381.846 617.412 382.91C618.359 385.1 620.656 385.628 622.724 384.734C623.53 384.385 624.289 383.585 624.465 382.709C624.719 381.427 624.002 380.431 622.988 379.732C622.329 379.278 621.362 379.608 620.981 380.259C620.554 380.988 620.85 381.813 621.507 382.265C621.863 382.511 621.319 382.086 621.601 382.345C621.865 382.588 621.451 382.094 621.629 382.363C621.803 382.625 621.533 382.045 621.616 382.327C621.514 381.98 621.598 382.074 621.591 382.245C621.609 381.798 621.522 382.253 621.69 381.87C621.65 381.962 621.479 382.187 621.746 381.843L621.569 382.029C621.398 382.191 621.843 381.855 621.498 382.068C621.417 382.119 621.329 382.16 621.242 382.201C621.605 382.029 621.308 382.165 621.221 382.191C621.125 382.223 621.026 382.243 620.927 382.263C620.579 382.335 621.265 382.236 620.911 382.259C620.809 382.265 620.706 382.26 620.604 382.255C620.252 382.237 620.936 382.321 620.593 382.245C620.51 382.227 620.196 382.101 620.561 382.259C620.474 382.222 620.12 381.967 620.425 382.212C620.341 382.144 620.27 382.064 620.198 381.983C620.432 382.247 620.213 381.965 620.176 381.896C620.112 381.778 620.051 381.663 619.994 381.543C620.139 381.849 619.997 381.514 619.979 381.454C619.952 381.369 619.892 381.011 619.95 381.44C619.937 381.347 619.938 381.253 619.939 381.16C619.942 380.837 619.867 381.509 619.933 381.203C620.017 380.817 619.828 381.376 619.936 381.161C619.973 381.086 620.021 381.017 620.069 380.948C619.834 381.288 619.991 381.059 620.066 380.982L620.267 380.801C619.952 381.066 620.197 380.862 620.274 380.811C620.441 380.7 620.62 380.608 620.799 380.521C620.865 380.489 621.195 380.35 620.835 380.499C620.969 380.443 621.105 380.395 621.243 380.346C622.994 379.729 624.897 379.471 626.701 379.036C629.297 378.411 631.871 377.592 634.237 376.339C636.574 375.102 638.669 373.294 639.922 370.94C641.177 368.583 641.761 365.653 640.73 363.108C639.709 360.584 637.47 358.895 634.813 358.386C632.625 357.967 630.478 358.473 628.418 359.221C626.699 359.846 624.976 360.629 623.492 361.711C622.264 362.608 620.897 363.901 621.313 365.583C621.767 367.419 624.595 366.641 624.142 364.803Z" fill="#FF2E2E"/>
<path d="M613.176 359.724C613.176 373.7 605.706 385.032 596.49 385.032C595.21 385.032 593.963 384.813 592.765 384.399C588.772 379.127 586.25 371.367 586.25 362.715C586.25 360.418 586.428 358.185 586.763 356.044H613C613.116 357.246 613.176 358.474 613.176 359.724Z" fill="#FF5555"/>
<path d="M595.334 380.212C594.742 380.212 594.184 379.878 593.812 379.357C593.049 378.294 592.453 377.107 591.928 375.911C591.24 374.343 590.631 372.742 590.165 371.093C589.283 367.975 588.613 364.429 589.496 361.234C589.705 360.476 590.414 359.968 591.172 359.968C591.32 359.968 591.47 359.988 591.619 360.029C592.525 360.277 593.075 361.245 592.825 362.151C592.751 362.418 592.687 362.687 592.64 362.96C592.637 363.008 592.601 363.284 592.597 363.346C592.586 363.484 592.575 363.621 592.568 363.758C592.537 364.488 592.56 365.22 592.631 365.947C592.648 366.111 592.664 366.276 592.684 366.441C592.683 366.432 592.683 366.428 592.683 366.428C592.684 366.428 592.74 366.822 592.748 366.875C592.809 367.242 592.874 367.608 592.95 367.973C593.115 368.767 593.31 369.554 593.539 370.332C593.764 371.101 594.011 371.863 594.289 372.614C594.431 372.999 594.578 373.384 594.734 373.763C594.766 373.838 594.785 373.883 594.79 373.897C594.81 373.944 594.83 373.99 594.849 374.036C594.908 374.168 594.966 374.301 595.026 374.433C595.529 375.536 596.085 376.628 596.793 377.616C597.343 378.383 596.928 379.535 596.173 379.976C595.896 380.139 595.612 380.212 595.334 380.212ZM592.693 366.513C592.694 366.523 592.695 366.533 592.697 366.542C592.695 366.532 592.694 366.522 592.693 366.513Z" fill="#FF8B60"/>
</svg>
